<svg width="79" height="79" viewBox="0 0 79 79" fill="none" xmlns="http://www.w3.org/2000/svg">
<path d="M10.0125 1.63258C4.45864 6.93072 0.70394 11.9323 0 17.6531C0.146953 29.3989 10.7652 43.0224 23.2712 55.5165C29.4779 61.7174 36.1683 67.884 42.7096 72.3576C49.2509 76.8313 55.6423 79.7183 61.4048 78.8441C67.0368 78.2028 73.2946 71.9509 77.3622 68.763C79.5524 66.9493 79.5524 61.9479 77.3232 60.0104L66.7631 49.4602C64.0278 47.2767 60.4267 47.1675 57.5719 48.6398C54.9949 50.4272 52.4215 52.4189 50.219 53.9921C47.8928 55.0963 45.5307 53.3687 43.7656 52.1165C40.7559 49.9644 37.4671 46.6835 34.8091 44.028C32.1312 41.3525 28.7874 38.2511 26.6349 35.3536C24.9771 33.1548 23.9647 30.7811 24.914 28.5154C26.668 26.0901 28.5338 23.6902 30.2331 21.2476C31.5244 18.296 31.6154 14.425 29.49 12.2214L18.9299 1.67108C15.9645 -0.664188 12.8719 -0.434462 10.0125 1.63258ZM17.1698 3.46914L27.7299 13.9802C29.0951 15.9316 28.7386 18.0004 28.0428 20.0368L22.9192 27.0311C20.8889 30.6124 22.6074 34.0798 24.6401 36.8388C27.0094 40.0283 30.3815 43.2001 33.0099 45.8261C35.6707 48.4842 39.0418 51.845 42.3184 54.188C45.0693 56.114 49.0622 58.068 51.7834 55.9464C54.1434 54.264 56.4803 52.5374 58.8234 50.828C61.054 49.8489 63.0717 50.0122 64.9639 51.2187L75.563 61.8079C76.8566 63.5794 76.5478 65.2348 75.602 66.9268C70.7913 70.7006 65.7851 75.702 61.0136 76.3436C56.3702 77.0304 50.4122 74.5921 44.1175 70.287C37.8061 65.9707 31.1874 59.909 25.0311 53.7586C12.7097 41.4489 2.67823 27.8863 2.50301 17.6927C3.3008 13.3773 6.8419 8.60403 11.7333 3.43041C13.7314 2.06033 15.3146 2.29166 17.1698 3.46914Z" fill="black"/>
</svg>
