<svg width="130" height="77" viewBox="0 0 130 77" fill="none" xmlns="http://www.w3.org/2000/svg">
<path d="M126.019 16.4638C127.873 23.5297 126.586 30.7046 126.019 37.8141C125.583 43.3752 125.91 48.9581 125.125 54.5193C124.689 57.6379 125.91 60.582 127.96 63.9623C128.309 58.6846 129.552 54.2794 128.549 49.5688C126.957 42.1976 128.221 34.8482 129.246 27.4988C129.923 22.7228 130.337 17.9031 129.639 13.0617C128.767 7.0644 124.318 2.76816 118.255 2.26657C114.809 1.98306 111.429 2.57189 108.005 2.85539C95.7053 3.90219 83.449 4.7091 71.0619 3.18252C61.6625 2.02668 52.1977 3.20433 42.842 4.53463C41.9042 4.66548 40.9665 4.77453 40.0287 4.90538C39.7234 3.46603 41.9914 2.52827 40.6175 1.32881C39.4835 0.325631 37.8697 0.761799 36.6266 1.35062C34.5112 2.3538 32.7011 2.52827 30.7602 0.914457C29.0373 -0.524891 27.0091 -0.110533 25.3953 1.08892C22.8437 3.00805 20.314 2.74635 17.5443 1.72136C16.3231 1.26339 14.6874 0.172975 13.7279 1.63413C12.7465 3.09529 13.6406 4.77452 14.6874 6.06121C15.2108 6.71546 16.0396 7.10801 16.6066 7.71865C17.5225 8.67821 19.747 7.36971 19.7906 9.04895C19.8778 12.7564 22.7129 16.2239 20.1831 20.2366C16.7592 25.6887 17.6098 27.0844 24.0868 27.9349C25.5262 28.1312 26.8129 27.477 28.0559 26.8663C29.6916 26.0594 30.7165 26.5174 31.807 28.0004C34.5112 31.6642 35.7106 35.8296 36.583 40.1476C37.5644 44.9672 39.3962 48.98 44.8701 49.9613C45.7425 50.114 46.3095 50.5283 46.2659 51.4007C45.9387 56.8309 48.7302 62.1086 47.051 67.6479C46.593 69.1744 46.4403 70.8101 45.3935 72.1186C44.1068 73.7542 44.9356 74.2776 46.5712 74.5175C50.0605 75.0191 51.8052 73.5361 51.5653 70.0032C51.1073 63.3952 52.3504 56.9836 53.6153 50.5502C53.6807 50.1794 54.0078 49.8523 54.2041 49.5034C54.4222 49.6778 54.7929 49.8087 54.8365 50.0268C56.603 56.3075 61.1391 61.8687 59.678 68.9782C59.3072 70.7446 59.1546 72.4893 57.6716 73.9068C56.1886 75.3244 56.7121 76.284 58.8056 76.4802C62.862 76.8728 63.9524 75.6079 63.9306 71.4425C63.9088 63.6351 64.0833 55.8278 65.0428 48.064C65.3045 45.905 66.3949 45.2507 68.3577 45.9922C71.3454 47.1481 74.3332 48.3693 77.2991 49.5688C80.7012 50.9427 84.1469 51.0517 87.6798 50.0486C88.8139 49.7214 89.9261 48.0204 91.1037 49.2635C92.6957 50.9209 95.1383 51.8805 95.5744 54.5411C95.7053 55.3044 95.3127 56.5256 96.5558 56.5692C97.6244 56.6129 97.2101 55.4134 97.4936 54.8028C97.7989 54.1921 98.2132 53.6687 98.9765 53.865C99.718 54.0613 99.8489 54.7155 99.9579 55.3698C100.111 56.1767 100.002 57.4416 101.005 57.4634C102.182 57.507 101.681 56.1549 102.008 55.4352C103.142 52.9491 105.89 52.9927 107.918 52.2948C109.117 51.8805 109.314 54.3448 109.466 55.6315C110.251 61.9341 108.267 67.6479 105.497 73.1654C105.083 73.9723 103.949 74.801 104.669 75.6951C105.65 76.9164 107.264 76.502 108.616 76.4148C109.488 76.3712 110.251 76.3276 110.622 74.9755C111.8 70.7665 113.326 66.6665 114.744 62.5229C114.94 61.9559 115.202 61.3889 115.66 60.8873C115.594 65.2926 116.292 69.8287 113.435 73.7324C112.694 74.7356 112.89 75.0627 114.112 75.368C118.146 76.4148 120.501 74.4084 120.37 70.2867C120.196 64.1803 120.087 58.0522 121.614 52.0549C121.963 50.681 121.635 49.5252 121.025 48.3693C119.651 45.7741 119.651 43.1353 120.37 40.2784C122.355 32.362 125.714 24.8164 126.019 16.4638Z" fill="#3A405A"/>
<path d="M38.3712 57.8124C37.7824 60.1241 37.3244 62.3486 37.7388 64.6602C38.0223 66.2086 38.0659 67.7788 37.9351 69.349C37.8478 70.374 37.9351 71.3772 38.2404 72.3586C38.7202 73.9942 38.0441 75.4335 36.4957 76.175C36.1904 76.3277 35.8633 76.4367 35.5798 76.2186C35.2963 76.0005 35.1218 76.0878 34.8601 76.1968C34.3149 76.4149 33.9223 76.1096 34.184 75.608C34.8383 74.3431 34.4675 73.0128 34.6202 71.7261C34.7729 70.3304 34.5984 69.0001 34.1186 67.6916C33.7261 66.6884 33.5516 65.6416 33.5952 64.5512C33.6388 63.3735 33.4207 62.2177 32.8755 61.1491C32.8101 60.9964 32.7665 60.7565 32.5484 60.822C32.4612 60.8438 32.3739 61.0619 32.3521 61.1927C32.2431 61.6725 32.2213 62.1959 32.5266 62.5666C33.3335 63.5262 33.1372 64.6166 33.0282 65.707C32.941 66.5139 32.7229 67.3208 32.592 68.1278C32.4612 68.9783 32.3085 69.8506 32.7665 70.6793C32.8319 70.7884 32.8755 70.941 32.8537 71.0283C32.3739 72.7947 32.5484 74.8883 30.4766 75.8697C30.0187 76.0878 29.5389 76.5458 29.2554 75.6734C29.1899 75.499 29.0809 75.5862 28.9719 75.5862C28.1431 75.6952 28.0123 75.5426 28.2522 74.7139C28.6447 73.3617 28.9937 71.9878 29.1681 70.5703C29.3208 69.3708 29.3208 68.1714 28.8628 67.0373C28.3176 65.6634 27.8814 64.2895 27.7724 62.8065C27.707 61.7597 27.1181 61.1491 26.115 60.8438C25.1772 60.5603 24.2613 60.4948 23.3235 60.7129C22.1022 61.0182 20.881 61.3672 19.5943 61.4544C18.94 61.498 18.4384 62.065 18.5911 62.6975C19.0273 64.5294 18.6783 66.3613 18.5693 68.1932C18.4602 69.8506 18.6347 71.4644 19.0055 73.0782C19.2017 73.907 19.0709 74.7139 18.5911 75.4335C18.0895 76.2186 17.5661 76.3495 16.7156 75.9787C16.5847 75.9133 16.4975 75.9787 16.3667 76.0224C15.4289 76.3277 14.8837 75.9133 15.1236 74.9537C15.3417 73.9942 15.3635 73.0346 15.4725 72.0751C15.6034 70.8538 15.4071 69.6979 14.9709 68.5639C14.4257 67.1246 13.8587 65.707 13.8369 64.115C13.8369 63.2209 13.5098 63.09 12.7247 63.5044C12.681 63.5262 12.6374 63.5698 12.5938 63.5698C11.4598 63.5044 11.7215 64.2895 11.7433 64.9219C11.8305 66.8193 11.5906 68.6948 11.7433 70.5921C11.8087 71.3554 11.9178 72.1187 12.0486 72.882C12.2885 74.2123 11.9178 74.8883 10.7183 75.4772C10.4566 75.608 10.1731 75.7607 9.95501 75.5426C9.6715 75.2591 9.43161 75.3681 9.1481 75.499C8.84279 75.6298 8.51566 75.6952 8.23216 75.4553C7.94865 75.1936 8.03588 74.8665 8.1013 74.5394C8.25396 73.8852 8.42843 73.2309 8.55928 72.5766C8.82098 71.29 8.84279 70.0251 8.47205 68.7384C8.27577 68.0623 8.14492 67.3863 8.14492 66.6884C8.18854 63.7007 7.22897 60.8656 6.92366 57.9215C6.81462 56.7438 6.96727 55.6098 7.22897 54.4539C7.49067 53.2545 7.62152 52.0114 7.77418 50.7683C7.8178 50.354 7.70876 49.9832 7.2944 49.7652C6.88004 49.5471 6.70557 49.1981 6.68376 48.7402C6.61834 47.5843 6.26941 46.5157 5.61516 45.5343C4.96091 44.553 5.04814 43.4626 5.06995 42.3503C5.09176 41.1291 5.02633 41.0855 3.82688 41.0855C3.45614 41.0855 3.0854 41.1073 2.71465 41.0636C0.991798 40.911 -0.120425 39.5589 0.0104244 37.8142C0.0758493 36.8328 0.599249 36.5057 1.47158 36.9637C2.45295 37.4871 3.39071 38.0977 4.43751 38.4903C5.11357 38.752 5.57154 38.7302 5.87686 37.9887C6.05132 37.5743 6.42207 37.3562 6.81462 37.16C8.79917 36.2222 10.7619 36.4403 12.7465 37.1818C13.3353 37.3999 13.6188 37.9233 13.7497 38.4903C13.8369 38.9482 14.0768 39.0137 14.4911 38.9264C15.189 38.7956 15.8214 38.5339 16.4321 38.2068C17.3044 37.727 18.2422 37.5525 19.2453 37.6397C20.0304 37.727 20.2049 38.0105 19.8996 38.7302C18.94 41.0636 17.2826 41.9578 14.8837 41.4126C14.7092 41.369 14.4911 41.2381 14.3385 41.4562C14.1858 41.6743 14.2731 41.8924 14.3603 42.0886C14.9273 43.2445 15.7124 44.0514 17.0863 44.2477C19.5507 44.6184 22.015 44.7929 24.4793 45.1418C26.1804 45.3599 27.8596 45.2726 29.5389 45.2508C31.7633 45.2072 33.8569 45.687 35.8415 46.712C37.5425 47.6061 38.4367 48.9583 38.4803 50.8774C38.5021 51.4226 38.5021 51.9678 38.5239 52.513C38.5457 54.0614 39.0037 55.4789 40.2031 56.5257C42.6238 58.6193 43.518 61.4108 43.8451 64.4421C44.0414 66.165 43.2563 67.3208 41.577 67.7788C41.3372 67.8442 41.0973 67.8661 40.8356 67.8224C40.6829 67.8006 40.5303 67.757 40.4648 67.6044C40.3994 67.4299 40.5303 67.3208 40.6611 67.2554C41.2717 66.9719 41.4026 66.4267 41.3808 65.8161C41.3808 65.1618 41.6207 64.5512 41.8169 63.9406C42.2095 62.6757 41.9478 61.5416 41.1627 60.4948C40.334 59.5789 39.2872 58.7938 38.3712 57.8124Z" fill="#3A405A"/>
</svg>
