<svg width="115" height="74" viewBox="0 0 115 74" fill="none" xmlns="http://www.w3.org/2000/svg">
<g id="Group">
<path id="Vector" d="M38.7345 0C36.3639 5.01358 34.6084 10.0697 33.2357 15.1546C32.2933 12.8257 31.2631 10.5267 30.1254 8.26298C31.1277 11.0679 31.9753 14.0569 32.7031 17.1864C29.3844 30.4769 28.5561 43.9454 26.5118 57.3269C23.4254 39.7096 26.3158 22.0936 8.77958 4.47633C20.7219 20.2231 20.4894 35.4808 21.3458 50.7842C15.5876 44.5514 9.38127 38.825 0 36.6681C13.7368 44.4072 18.4323 53.3959 20.3126 61.9763C17.9437 56.9881 16.5666 54.0931 11.0164 53.8838C15.1293 56.9022 16.1745 64.9726 16.3475 69.7227H1.72023V73.1658H114.654V69.7227H103.478C103.411 63.5932 104.201 53.5068 106.907 48.2038C103.544 53.2372 101.92 63.3927 101.1 69.7227H96.9509C98.7654 52.0702 103.043 24.9726 115 5.33645C104.229 17.9554 99.2783 34.5754 93.4811 50.6137C93.9608 44.1292 94.0687 37.6431 92.6183 31.1586C92.7537 37.644 92.2117 43.7248 90.725 49.237C90.3478 40.3997 88.898 31.5599 86.2487 22.7225C88.5544 35.7072 87.3617 48.2566 87.2819 60.9431C84.8621 52.7793 83.1082 44.5237 78.3851 36.6735C78.767 34.1467 79.1659 31.6216 79.5355 29.0948C78.9883 31.3877 78.4664 33.6803 77.9457 35.9731C77.4228 35.1386 76.8689 34.308 76.2734 33.4833C78.9841 22.7158 82.961 11.8847 88.6586 2.58035C79.0343 11.3282 74.882 24.375 69.5496 36.495C69.2857 30.2763 67.5811 24.4913 65.3635 18.8587C65.4956 18.311 65.6184 17.7633 65.763 17.2156C65.5841 17.6579 65.4269 18.1244 65.2544 18.5737C64.3378 16.2659 63.346 13.981 62.3198 11.7061C63.1593 14.9195 63.8447 17.8945 64.4448 20.7387C60.9756 30.5558 58.8847 41.9046 57.6704 54.2273C56.0682 48.2865 53.4251 42.7218 48.7284 37.8877C54.5275 46.5879 54.8108 60.4213 55.6946 69.7227H49.2583C48.1722 62.3365 49.1706 50.7047 49.5805 44.071C48.2935 50.7832 46.6328 62.529 47.0854 69.7227H44.3533C46.1238 60.4804 46.8512 46.504 48.7284 37.8877V37.8851C50.4761 29.8646 53.2428 22.049 58.8767 14.8057C49.7577 23.0083 44.6075 35.8413 40.9714 50.4407C40.1834 39.4432 38.225 28.8364 34.6177 18.7788C35.4933 12.6333 36.7703 6.39667 38.7345 0ZM64.6925 21.8917C69.032 43.1871 66.8984 59.6694 63.8404 69.7227H62.6554C62.6663 55.2876 61.8631 35.9198 64.6925 21.8917ZM34.0026 23.6572C36.1165 35.8839 36.7655 55.1691 37.2433 69.7227H31.7285C32.6805 55.8255 32.5 37.259 34.0026 23.6572ZM76.2548 33.5552C76.8097 34.6426 77.3044 35.7387 77.746 36.8412C75.7155 45.8884 74.0979 60.0921 74.0206 69.7227H71.2033C71.5503 59.6821 72.9564 46.6843 76.2548 33.5552ZM78.1854 37.9969C81.2694 46.4224 81.4404 60.3741 82.0919 69.7227H77.5436C76.0033 60.4564 76.9086 46.6418 78.1854 37.9969Z" fill="#3A405A"/>
</g>
</svg>
