<svg width="88" height="87" viewBox="0 0 88 87" fill="none" xmlns="http://www.w3.org/2000/svg">
<g id="tSrV6s_1_">
<g id="Group">
<path id="Vector" d="M72.1757 46.3839C72.4932 46.9854 72.7438 47.6204 73.2785 48.1049C75.0831 49.7591 77.0213 51.2796 79.0933 52.583C80.9647 53.7526 81.5996 55.3065 80.9814 57.4286C80.3966 59.4003 79.7282 61.3552 79.0933 63.3102C78.1408 66.1842 78.074 69.0414 79.0598 71.9488C79.6112 73.5696 79.7282 75.2739 79.4609 76.9615C79.3105 77.9641 78.8259 78.8664 78.2077 79.6684C76.754 81.5732 74.4481 81.8239 72.5433 80.2365C70.321 78.3818 68.483 76.2096 67.1463 73.6197C66.0769 71.5478 64.9574 69.4926 63.8713 67.4373C63.8379 67.4541 63.7877 67.4541 63.7543 67.4708C63.7543 67.5877 63.7376 67.7047 63.7543 67.8217C64.1386 70.4617 64.0718 73.1184 64.1386 75.7919C64.1553 76.7109 63.9047 77.5464 63.4703 78.3317C62.7016 79.7185 61.5821 79.9023 60.4125 78.833C60.2955 78.7327 60.212 78.599 60.0616 78.4319C59.9613 78.5823 59.8778 78.6826 59.811 78.7828C59.1426 79.8522 58.4575 80.9216 57.8059 82.0077C57.5051 82.4922 57.0707 82.7596 56.5694 82.9935C56.3188 82.5424 56.1183 82.1246 56.1517 81.59C56.2686 79.4679 55.9679 77.396 55.4666 75.324C55.1993 74.2212 55.1993 73.0182 55.216 71.8653C55.2327 71.0131 55.7339 70.3447 56.536 70.0273C57.6722 69.5594 58.0565 68.6905 58.0732 67.5543C58.0732 66.5852 58.0565 65.6328 58.0732 64.6636C58.0899 63.2099 58.5244 61.9066 59.3932 60.7203C61.0641 58.4479 61.9831 55.8579 62.2839 53.0842C62.568 50.4609 62.6515 47.8042 62.8019 45.1641C62.9189 42.7747 62.9523 40.3686 63.1194 37.9792C63.1862 36.9432 63.487 35.9407 63.7376 34.9214C63.888 34.3366 64.3558 34.1862 64.8237 34.5873C65.3751 35.0718 65.9599 35.5731 66.3609 36.1746C67.8313 38.3802 69.7863 40.0511 72.042 41.3879C73.3453 42.1565 74.6821 42.875 76.0522 43.5099C77.9236 44.3788 79.4943 45.6654 81.0482 46.9687C82.786 48.4391 84.2898 50.0933 85.6098 51.9814C85.2255 51.7475 84.8245 51.5303 84.4569 51.2629C82.9531 50.1601 81.2821 49.4416 79.4441 49.074C78.3079 48.8401 77.1717 48.4892 76.0856 48.0715C75.0998 47.6872 74.1808 47.1024 73.2284 46.6345C72.9276 46.4841 72.5934 46.4006 72.2759 46.2836C72.2258 46.3003 72.1924 46.3338 72.1757 46.3839Z" fill="#3A405A"/>
<path id="Vector_2" d="M61.3482 43.9945C61.1811 46.6345 61.0641 49.2745 60.8135 51.9146C60.6965 53.0508 60.3457 54.187 60.0115 55.2898C59.6439 56.4762 58.9254 57.462 57.9563 58.2306C56.6529 59.2666 56.0514 60.6534 55.8175 62.2742C55.7674 62.6251 55.6337 63.0094 55.4499 63.3102C55.2494 63.6276 54.9987 63.6109 54.7982 63.2935C54.6311 63.0261 54.4975 62.7086 54.4808 62.3912C54.4139 60.7704 53.8959 59.3501 52.8433 58.0802C52.2752 57.3952 52.4088 56.5764 52.5091 55.7577C52.6929 54.3207 52.9101 52.8837 53.0104 51.4467C53.1273 49.8761 52.4757 48.8735 51.0053 48.272C50.1197 47.9044 49.2341 47.6036 48.3485 47.2527C48.0645 47.1525 47.7804 47.0355 47.5298 46.9018C47.0619 46.6345 46.9283 46.3003 47.1956 45.8157C47.4964 45.2811 47.8305 44.7798 48.2149 44.2952C49.2508 42.9418 50.3369 41.6218 51.3729 40.2683C52.2083 39.1655 52.2919 37.9792 51.6235 36.7427C51.3562 36.2414 51.0888 35.7235 50.8382 35.2222C50.4873 34.5538 50.1531 33.8687 49.8022 33.2004C49.0169 31.7133 48.9333 30.176 49.5015 28.5887C50.4205 26.0656 51.9577 23.977 53.8959 22.1557C54.5309 21.5541 55.2327 21.0362 55.8843 20.4513C56.9036 19.5323 58.0064 19.6326 59.1092 20.2007C59.5937 20.4513 60.0115 20.8524 60.4125 21.2367C60.8302 21.621 61.1644 22.0721 61.5821 22.4564C62.2171 23.0413 62.6014 23.0914 63.3366 22.6402C64.1553 22.1223 64.924 21.5541 65.726 21.0027C67.3969 19.8331 69.0344 18.5799 70.7554 17.4938C73.6962 15.6558 76.871 15.5723 80.0958 16.625C81.633 17.1262 82.7693 18.1956 83.6716 19.5323C84.223 20.3177 84.7911 21.103 85.426 21.8215C85.9106 22.3896 86.5455 22.7572 87.2473 22.9911C87.8822 23.225 88.1329 23.7096 87.9324 24.3613C87.4478 25.9486 86.6625 27.3856 85.5096 28.5887C83.5546 30.6272 81.1151 31.6464 78.3581 31.9806C76.7874 32.1644 75.2669 31.9305 73.7464 31.6464C71.0896 31.1619 68.4663 31.4626 65.9098 32.248C63.6206 32.9497 61.131 35.2055 61.248 38.7144C61.3148 40.4521 61.2647 42.2066 61.2647 43.961C61.2647 43.9945 61.3148 43.9945 61.3482 43.9945ZM67.7478 22.7739C67.7144 22.7238 67.681 22.6737 67.6475 22.6235C66.7285 23.1248 65.7761 23.5759 64.8905 24.1273C64.0049 24.6787 63.1862 25.3471 62.334 25.9653C62.0166 25.5977 61.7492 25.2301 61.4317 24.9127C60.5796 24.0438 59.1927 23.8767 58.4241 24.5785C57.2879 25.6312 56.4023 26.8676 56.018 28.3882C55.5836 30.0758 55.9679 31.5128 57.338 32.6323C58.1233 33.2839 59.0089 33.451 59.9781 33.1335C60.1619 33.0667 60.3457 33.0166 60.5629 32.933C60.73 33.4009 60.8803 33.852 61.0307 34.3199C61.5153 33.6014 61.532 32.6991 61.0474 31.8971C60.6631 32.0809 60.2454 32.248 59.8611 32.4485C59.1259 32.8495 58.6747 32.7994 58.1401 32.1644C57.8727 31.8469 57.6054 31.4793 57.455 31.0783C56.8367 29.3406 57.1208 27.7198 58.1735 26.2327C58.5244 25.7481 58.9755 25.3805 59.5436 25.1633C60.2955 24.8793 60.9973 25.18 61.2145 25.9152C61.0641 25.9319 60.9305 25.9486 60.7968 25.9486C60.4459 25.9653 60.095 25.9653 59.7441 25.9821C59.5269 25.9988 59.3932 26.0656 59.4935 26.3497C60.1619 26.2995 60.7634 26.4666 61.2647 26.9178C61.7325 27.3522 62.1335 27.8201 62.5345 28.2378C63.0358 27.5861 63.487 26.9345 64.0217 26.3497C64.7067 25.6145 65.4586 24.9461 66.1771 24.261C66.6784 23.7765 67.2131 23.2752 67.7478 22.7739ZM58.2737 30.9447C58.8585 29.6246 59.4099 28.4216 59.9446 27.2018C59.1092 27.1016 58.8084 27.2519 58.4575 27.9203C58.3573 28.1208 58.257 28.3213 58.1902 28.5218C57.973 29.3072 57.973 30.0758 58.2737 30.9447Z" fill="#3A405A"/>
<path id="Vector_3" d="M27.9133 54.7886C27.8465 54.6883 27.7295 54.6048 27.7128 54.5045C27.1781 51.8645 26.5599 49.2244 26.3594 46.5343C26.1756 44.0446 25.9918 41.5382 25.7913 39.0486C25.7579 38.6141 25.6576 38.163 25.5072 37.762C24.9558 36.2415 23.5857 35.4895 22.015 35.8906C21.0793 36.1245 20.1937 36.5255 19.258 36.7594C13.5101 38.2466 8.46394 36.9599 4.21983 32.7994C2.34841 30.9614 1.2289 28.6555 0.426859 26.1826C0.326605 25.8651 0.226351 25.5309 0.126096 25.2135C-0.191377 24.0939 0.0759681 23.4089 1.09522 22.8241C2.38182 22.0721 3.68513 21.3202 4.98844 20.585C5.6401 20.2174 6.27504 19.8498 6.9267 19.4989C8.64774 18.5465 10.4857 18.3293 12.424 18.6969C14.2954 19.0478 16.0332 19.7997 17.6874 20.7187C19.4084 21.6878 21.096 22.7405 22.7836 23.7598C23.5523 24.2276 24.0034 24.1608 24.5381 23.4757C25.2566 22.54 25.9751 21.5876 26.6601 20.6185C27.5624 19.3486 28.7154 18.9475 30.1691 19.4655C30.8708 19.7162 31.5559 20.0169 32.1909 20.3845C33.6278 21.2367 34.079 22.5901 33.4775 24.1441C33.1099 25.0965 32.6921 26.0155 32.3078 26.9512C31.9903 27.7365 31.84 28.5553 31.8567 29.3907C31.8734 30.0925 32.1407 30.4601 32.8258 30.6105C33.5443 30.7776 34.2962 30.8444 35.0147 31.0115C35.5661 31.1285 36.1008 31.2789 36.6188 31.4961C37.8719 32.0308 38.4902 33.1002 38.3398 34.4369C37.8887 38.3635 36.5686 41.9393 33.9453 44.9469C32.9595 46.0664 31.84 47.069 30.804 48.155C29.5341 49.4918 28.4981 50.9622 28.164 52.8169C28.047 53.4351 28.0303 54.0868 27.9802 54.7217C27.9635 54.7384 27.9467 54.7719 27.9133 54.7886ZM26.1923 31.3457C26.4262 31.2454 26.5933 31.2454 26.6434 31.1619C27.128 30.4434 27.0612 29.0231 26.5432 28.3381C26.4429 28.2044 26.2925 28.0707 26.1422 28.054C25.2232 27.9537 24.3209 27.9203 23.6024 28.6889C23.1512 29.1735 22.8338 29.2236 22.3158 28.8226C21.3132 28.0874 20.3441 27.3355 19.3416 26.6003C18.4727 25.9487 17.5871 25.297 16.6848 24.6453C16.5678 24.779 16.4676 24.8793 16.3339 25.0297C19.0909 27.018 21.213 29.5244 22.9006 32.4318C22.9841 32.1477 23.0176 31.8971 23.0677 31.6465C23.3016 30.3766 23.8697 29.3406 25.0394 28.7057C25.7077 28.3548 26.1255 28.572 26.1756 29.3239C26.209 29.9588 26.1923 30.5771 26.1923 31.3457ZM23.97 33.6181C24.1538 33.8855 24.3042 34.1027 24.4713 34.3366C24.6551 34.5873 24.8221 34.8212 25.1897 34.7376C25.5908 34.6541 25.9082 34.4536 25.9751 34.0359C26.0419 33.6181 26.0586 33.1837 26.1087 32.7493C26.0753 32.7493 26.0586 32.7325 26.0252 32.7325C25.691 33.2839 25.3568 33.8186 25.0059 34.4035C24.7386 34.0526 24.5047 33.7351 24.254 33.4176C24.1538 33.4845 24.0702 33.5346 23.97 33.6181ZM25.1062 29.9421C24.4713 30.6606 24.4713 31.1452 25.1229 31.7968C25.7746 31.0951 25.7746 30.7943 25.1062 29.9421Z" fill="#3A405A"/>
<path id="Vector_4" d="M37.3038 86.068C37.4041 85.3328 37.4041 84.631 37.6213 84.0128C38.1894 82.3251 38.2563 80.6208 37.9221 78.8831C37.5378 76.8445 37.1869 74.7893 36.1843 72.9513C35.5327 71.7483 34.7808 70.6121 34.0122 69.4758C33.4106 68.5735 33.043 67.6044 33.0597 66.5183C33.0597 66.4515 33.0597 66.3847 33.0597 66.3178C33.0597 66.3011 33.0764 66.2677 33.1266 66.1841C33.277 66.4014 33.4608 66.5852 33.561 66.7857C34.4633 68.7573 36.1008 69.7098 38.1727 69.7933C39.7601 69.8601 41.3642 69.6763 42.9682 69.6095C44.2548 69.5594 45.5247 69.2753 46.828 69.4758C47.7136 69.6262 48.3319 70.1108 48.5491 70.9797C48.7663 71.8987 48.8665 72.8511 49.0336 73.7868C49.2007 74.6891 49.3511 75.6081 49.5683 76.5104C49.6519 76.8445 49.8357 77.162 50.0696 77.4294C50.8549 78.3149 51.3729 79.2841 51.5734 80.4704C51.6403 80.8547 51.8408 81.2725 52.0914 81.5732C52.7932 82.4254 52.9436 83.4279 53.0104 84.4639C53.0438 84.9485 53.0605 85.433 53.1107 85.9009C53.1608 86.469 52.86 86.8366 52.2919 86.8366C50.8382 86.8533 49.3678 86.8867 47.9141 86.8199C45.7754 86.7196 43.6533 86.5358 41.5145 86.3854C40.1277 86.2852 38.7742 86.1849 37.3038 86.068Z" fill="#3A405A"/>
<path id="Vector_5" d="M27.8465 57.6626C27.8966 59.016 28.2976 60.3527 27.93 61.7229C27.7629 62.3578 27.93 62.9928 28.2308 63.5776C28.5483 64.1457 29.5508 64.413 30.2693 64.0956C31.2551 63.6444 32.124 62.976 32.8759 62.1907C33.2435 61.8064 33.3271 61.2884 33.2936 60.7704C33.2602 60.336 33.1934 59.8849 33.1767 59.4504C33.16 58.8823 33.3438 58.6317 33.8952 58.4813C34.4299 58.3476 34.9646 58.2808 35.4993 58.1805C36.2679 58.0469 36.8694 57.696 37.3373 57.0443C37.4876 56.8271 37.8385 56.6433 38.1059 56.6266C39.0416 56.5598 39.9773 56.5598 40.913 56.5598C41.6482 56.5598 41.9155 56.8438 41.8988 57.5957C41.8654 58.4312 42.1495 58.8656 42.9515 59.1162C43.6199 59.3335 44.3049 59.5006 44.99 59.6509C46.0928 59.9016 46.4938 60.4196 46.4437 61.5558C46.427 62.0236 46.3936 62.5082 46.4771 62.9593C46.6776 64.012 47.5465 64.7138 48.6994 64.8475C49.6853 64.9644 50.6043 64.6971 51.5567 64.4966C52.1582 64.3629 52.7765 64.2459 53.3947 64.129C53.4782 64.1123 53.6453 64.1457 53.6787 64.2125C53.7289 64.2961 53.7122 64.4632 53.662 64.53C52.86 65.3989 51.9911 66.2009 50.7379 66.2009C50.0195 66.2009 49.2843 66.0505 48.5825 65.8667C45.6083 65.1148 42.634 64.3295 39.6598 63.5442C39.2087 63.4272 38.7575 63.3269 38.2897 63.1933C36.5853 62.7421 35.0815 63.1933 33.6613 64.1624C32.5919 64.8976 31.4389 65.3487 30.1189 65.2986C29.2668 65.2652 28.4814 65.0647 27.7128 64.6804C26.8941 64.2794 26.4596 63.611 26.61 62.7087C26.9108 61.0211 27.2951 59.3502 27.646 57.6626C27.7128 57.6626 27.7796 57.6626 27.8465 57.6626Z" fill="#3A405A"/>
<path id="Vector_6" d="M61.7158 12.5647C62.3508 12.314 62.9356 12.1135 63.5037 11.8629C66.7453 10.4593 68.884 8.0198 70.2375 4.81165C70.4881 4.22683 70.6719 3.60859 70.8891 3.00707C70.9727 2.77314 70.9393 2.63947 70.6719 2.5225C70.3377 2.94023 70.0035 3.35796 69.6861 3.77568C68.9175 4.76152 68.1823 5.76407 67.3969 6.7499C65.6258 8.97221 63.2865 10.2254 60.5128 10.71C59.9781 10.8102 59.4267 10.8771 58.892 10.9105C58.1401 10.9606 57.7057 10.6431 57.4884 9.92463C57.6388 9.89122 57.8059 9.80767 57.9563 9.80767C61.5153 9.94134 64.3057 8.42081 66.5949 5.84761C67.5139 4.81165 68.2658 3.60859 69.1514 2.53921C69.8699 1.67034 70.7053 0.88501 71.4907 0.0829733C71.5742 -0.000572168 71.7914 -0.0172815 71.9251 0.0161367C72.0086 0.0328458 72.0755 0.233355 72.0922 0.350319C72.3428 1.93768 71.9585 3.42479 71.474 4.9119C70.2876 8.65474 68.6501 12.1637 66.1772 15.2548C64.7736 17.0093 63.2531 18.6635 61.1811 19.666C60.8302 19.8331 60.4292 19.9 60.0616 20.0169C60.0115 19.9835 59.9614 19.9501 59.9113 19.9167C59.928 19.5992 59.8611 19.2316 59.9781 18.9643C60.4292 17.8782 60.8971 16.8088 61.4151 15.7728C61.9665 14.7369 62.2338 13.7009 61.7158 12.5647Z" fill="#3A405A"/>
<path id="Vector_7" d="M31.4724 10.5595C31.6562 11.1945 31.5392 11.7124 31.322 12.2304C30.9878 12.9656 30.4865 13.4836 29.6845 13.7342C27.8632 14.3023 26.0252 14.5196 24.1538 13.9515C22.8505 13.5504 21.7644 12.7818 20.7953 11.8628C19.9097 11.0274 19.0408 10.1752 18.2054 9.30633C17.8378 8.92202 17.5704 8.47087 17.2529 8.03644C17.2195 8.05315 17.1694 8.06986 17.136 8.08656C17.3365 8.7048 17.5036 9.35646 17.7709 9.95798C18.8236 12.2973 20.6115 13.9013 22.8171 15.1211C24.0034 15.7728 25.2566 16.2239 26.61 16.5748C26.5432 16.8756 26.4931 17.1596 26.4095 17.4437C26.2257 18.1287 26.0586 18.8138 25.8414 19.4655C25.5406 20.351 25.0895 20.5516 24.1705 20.3009C22.7168 19.9166 21.614 18.9976 20.6115 17.9282C19.3583 16.6082 18.4727 15.0543 17.7542 13.3833C17.1527 11.9965 16.5344 10.6263 15.9162 9.23949C15.2144 7.66884 15.064 6.03135 15.3815 4.34373C15.4149 4.19334 15.5152 3.95942 15.5987 3.94271C15.816 3.926 16.0833 3.97613 16.2337 4.09309C16.4008 4.21005 16.4843 4.46069 16.5679 4.6612C17.1026 5.93109 17.7208 7.13415 18.5562 8.23695C19.8763 9.9914 21.6641 11.1443 23.6191 12.08C24.6216 12.5646 25.6576 12.9489 26.7938 12.9322C28.1306 12.8988 29.2668 12.3808 30.2693 11.5286C30.6369 11.2112 31.0379 10.9104 31.4724 10.5595Z" fill="#3A405A"/>
<path id="Vector_8" d="M31.5726 8.95552C31.6228 7.60208 32.3747 6.74992 33.5276 6.58283C34.8476 6.38232 36.1509 6.49928 37.4542 6.68308C41.3642 7.25119 45.224 6.91701 49.0002 5.78079C50.504 5.32964 52.058 5.09572 53.6286 5.32964C55.3497 5.59699 56.2353 6.76663 56.0347 8.52108C55.9846 9.05577 55.8175 9.57376 55.7173 10.1084C55.6672 10.1252 55.617 10.1419 55.5669 10.1586C55.1659 9.74084 54.7147 9.33983 54.3806 8.88868C53.3279 7.48512 52.0413 7.18435 50.3871 7.70234C48.5157 8.28715 46.5941 8.75501 44.6726 9.15603C42.4837 9.62388 40.3449 9.27299 38.2563 8.57121C37.4375 8.28715 36.6188 7.98639 35.7833 7.71905C34.8977 7.41828 34.1124 7.58537 33.3271 8.08664C32.8091 8.42083 32.2076 8.65475 31.5726 8.95552Z" fill="#3A405A"/>
<path id="Vector_9" d="M44.2882 55.6073C43.8371 55.3066 43.7535 54.939 43.787 54.5212C43.8538 53.5354 44.3216 52.7334 45.0401 52.1151C46.1429 51.1794 47.2792 50.2938 48.4488 49.4417C49.3177 48.8234 50.0696 49.2245 50.1865 50.3105C50.3202 51.547 49.7688 52.4827 48.8665 53.2346C48.1814 53.8027 47.3627 54.1536 46.4771 54.1703C45.8088 54.1871 45.3075 54.4544 44.873 54.939C44.6892 55.1896 44.4887 55.3901 44.2882 55.6073Z" fill="#3A405A"/>
<path id="Vector_10" d="M32.3412 48.7566C32.9595 48.6564 33.5777 48.7065 34.1458 48.9237C34.9144 49.2078 35.683 49.5085 36.3848 49.9095C37.9722 50.8285 39.5428 50.8452 41.1469 50.0432C42.2497 49.4918 43.3525 48.9237 44.4553 48.3723C44.7394 48.2386 45.0234 48.0882 45.3242 48.0214C45.6249 47.9546 45.9591 47.9212 46.2432 48.0047C47.0118 48.1885 47.0786 48.4893 46.5439 49.0574C44.3383 51.4134 40.5788 52.2655 37.5879 51.0458C35.8501 50.2938 34.1124 49.5252 32.3412 48.7566Z" fill="#3A405A"/>
<path id="Vector_11" d="M33.5944 56.3091C33.6613 56.1086 33.7114 55.9916 33.7448 55.8747C33.9286 55.3734 33.8618 55.2063 33.3939 54.9891C33.1767 54.8888 32.9595 54.822 32.7423 54.7385C31.4891 54.2539 31.0881 53.6858 31.0881 52.3491C31.0881 51.6807 31.1716 50.9956 31.205 50.3273C31.205 50.2604 31.2551 50.1936 31.322 50.0265C31.4222 50.1936 31.4891 50.2938 31.5392 50.4108C32.0238 51.5971 32.7757 52.5329 33.8618 53.2179C34.6471 53.7025 34.8977 54.2539 34.7139 55.1729C34.597 55.741 34.2461 56.1086 33.5944 56.3091Z" fill="#3A405A"/>
</g>
</g>
</svg>
