<svg width="91" height="89" viewBox="0 0 91 89" fill="none" xmlns="http://www.w3.org/2000/svg">
<g id="Group">
<path id="Vector" d="M73.2439 42.1707H77.683C78.9037 42.1707 79.9025 41.172 79.9025 39.9512V22.1951H71.0244V39.9512C71.0244 41.172 72.0232 42.1707 73.2439 42.1707Z" fill="#3A405A"/>
<path id="Vector_2" d="M6.65854 22.1951H2.21951C0.99878 22.1951 0 23.1939 0 24.4146V35.5122H6.65854V22.1951Z" fill="#3A405A"/>
<path id="Vector_3" d="M77.6829 46.6097H73.2439C69.5817 46.6097 66.5854 43.6134 66.5854 39.9512H24.4146C24.4146 43.6134 21.4183 46.6097 17.7561 46.6097H13.3171C9.65488 46.6097 6.65854 43.6134 6.65854 39.9512H0V86.5609C0 87.7817 0.99878 88.7804 2.21951 88.7804H88.7805C90.0012 88.7804 91 87.7817 91 86.5609V39.9512H84.3415C84.3415 43.6134 81.3451 46.6097 77.6829 46.6097ZM63.2561 66.5853C63.2561 70.2475 60.2598 73.2439 56.5976 73.2439H54.378V75.4634C54.378 79.1256 51.3817 82.1219 47.7195 82.1219H43.2805C39.6183 82.1219 36.622 79.1256 36.622 75.4634V73.2439H34.4024C30.7402 73.2439 27.7439 70.2475 27.7439 66.5853V62.1463C27.7439 58.4841 30.7402 55.4878 34.4024 55.4878H36.622V53.2682C36.622 49.6061 39.6183 46.6097 43.2805 46.6097H47.7195C51.3817 46.6097 54.378 49.6061 54.378 53.2682V55.4878H56.5976C60.2598 55.4878 63.2561 58.4841 63.2561 62.1463V66.5853Z" fill="#3A405A"/>
<path id="Vector_4" d="M66.5854 22.1951H24.4146V35.5122H66.5854V22.1951Z" fill="#3A405A"/>
<path id="Vector_5" d="M88.7805 22.1951H84.3414V35.5122H91V24.4146C91 23.1939 90.0012 22.1951 88.7805 22.1951Z" fill="#3A405A"/>
<path id="Vector_6" d="M56.5976 59.9269H52.1586C50.9379 59.9269 49.9391 58.9281 49.9391 57.7074V53.2683C49.9391 52.0476 48.9403 51.0488 47.7196 51.0488H43.2805C42.0598 51.0488 41.061 52.0476 41.061 53.2683V57.7074C41.061 58.9281 40.0623 59.9269 38.8415 59.9269H34.4025C33.1818 59.9269 32.183 60.9257 32.183 62.1464V66.5854C32.183 67.8061 33.1818 68.8049 34.4025 68.8049H38.8415C40.0623 68.8049 41.061 69.8037 41.061 71.0244V75.4635C41.061 76.6842 42.0598 77.683 43.2805 77.683H47.7196C48.9403 77.683 49.9391 76.6842 49.9391 75.4635V71.0244C49.9391 69.8037 50.9379 68.8049 52.1586 68.8049H56.5976C57.8183 68.8049 58.8171 67.8061 58.8171 66.5854V62.1464C58.8171 60.9257 57.8183 59.9269 56.5976 59.9269Z" fill="#3A405A"/>
<path id="Vector_7" d="M13.3171 42.1707H17.7561C18.9768 42.1707 19.9756 41.172 19.9756 39.9512V22.1951H11.0976V39.9512C11.0976 41.172 12.0963 42.1707 13.3171 42.1707Z" fill="#3A405A"/>
<path id="Vector_8" d="M28.8537 8.87805C28.8537 6.43659 30.8512 4.43902 33.2927 4.43902H57.7073C60.1488 4.43902 62.1464 6.43659 62.1464 8.87805V17.7561H66.5854V8.87805C66.5854 3.99512 62.5903 0 57.7073 0H33.2927C28.4098 0 24.4146 3.99512 24.4146 8.87805V17.7561H28.8537V8.87805Z" fill="#3A405A"/>
</g>
</svg>
