<svg width="135" height="135" viewBox="0 0 135 135" fill="none" xmlns="http://www.w3.org/2000/svg">
<g id="Frame">
<g id="Group">
<path id="Vector" d="M23.2031 15.1084C21.9111 15.5303 19.6963 17.7978 19.3008 19.1426C18.5625 21.6475 19.0898 23.5723 21.0147 25.4971C21.7529 26.2617 22.5703 26.8945 22.7813 26.8945C23.1504 26.8945 23.2031 28.292 23.2031 40.0518V53.2353L21.7002 53.5254C16.9541 54.4482 9.33398 57.6387 8.75391 58.957C8.56934 59.3262 8.4375 59.8008 8.4375 60.0644C8.4375 60.6445 12.8408 68.291 13.5 68.8711C14.291 69.5566 15.082 69.4512 17.1123 68.4228C18.7734 67.5791 22.4385 66.1816 22.9922 66.1816C23.0977 66.1816 23.2031 66.6562 23.2031 67.21C23.2031 68.2383 23.1768 68.2646 21.832 68.6865C13.4736 71.4023 7.01367 78.416 4.8252 87.1699C4.19238 89.6748 4.19238 95.9502 4.8252 98.4551C6.03809 103.254 8.12109 106.972 11.6016 110.479C15.2139 114.144 19.0107 116.306 23.8887 117.519C26.4727 118.151 32.4316 118.151 35.0684 117.519C39.8672 116.358 43.6641 114.275 47.0918 110.874C51.2842 106.734 53.8682 101.777 54.5273 96.583L54.7119 95.0537L60.0645 94.9746L65.3906 94.9219V99.5361C65.3906 104.098 65.3906 104.177 66.0498 104.81L66.6826 105.469H73.8281H80.9736L81.6065 104.81C82.2656 104.177 82.2656 104.098 82.2656 99.5361V94.9219H90.7031C95.3438 94.9219 99.1406 94.9746 99.1406 95.0273C99.1406 95.0801 98.8242 95.8184 98.4551 96.6621C95.6602 102.964 97.084 110.294 102.015 115.251C108.659 121.896 119.153 121.896 125.798 115.251C130.887 110.136 132.205 102.595 129.094 96.1611C128.487 94.9219 128.276 94.1309 128.408 93.8672C128.54 93.6299 129.12 85.5879 129.727 75.9902C130.729 59.8799 130.781 58.4561 130.412 57.876C130.175 57.5068 129.727 57.1641 129.384 57.085C129.067 57.0059 123.583 56.7422 117.202 56.4785L105.601 56.0303L105.469 45.4043L105.337 34.7519L104.704 34.251C104.282 33.9082 103.676 33.75 102.806 33.75C101.698 33.75 101.514 33.6709 101.514 33.2226C101.514 32.0361 102.911 29.1357 104.546 26.9736C104.73 26.7363 104.44 26.2881 103.491 25.3125C102.779 24.6006 102.067 23.9941 101.883 23.9941C101.408 23.9941 99.5098 26.6045 98.6133 28.5293C98.165 29.4785 97.6377 31.0078 97.4531 31.9307L97.1104 33.6182L95.4756 33.75C92.6807 33.9873 92.8125 33.3545 92.8125 45.3252V55.5029L89.4902 55.4238C87.249 55.3711 86.168 55.2393 86.0889 55.0283C86.0098 54.8437 85.2451 49.0166 84.375 42.0557C83.5049 35.0947 82.7402 28.9775 82.6611 28.4766L82.5029 27.5273L83.9004 27.1846C86.4316 26.5254 88.5938 23.7305 88.5938 21.0937C88.5938 18.668 86.4844 15.7676 84.2168 15.082C82.7402 14.6601 24.6006 14.6601 23.2031 15.1084ZM83.7158 19.6435C84.1377 20.0391 84.375 20.5928 84.375 21.0937C84.375 21.5947 84.1377 22.1484 83.7158 22.5439L83.083 23.2031H53.7891H24.4951L23.8623 22.5439C23.4404 22.1484 23.2031 21.5947 23.2031 21.0937C23.2031 20.5928 23.4404 20.0391 23.8623 19.6435L24.4951 18.9844H53.7891H83.083L83.7158 19.6435ZM31.6406 40.0781V52.7344H29.5313H27.4219V40.0781V27.4219H29.5313H31.6406V40.0781ZM69.9785 28.3975C70.6113 32.2207 73.8281 57.3223 73.8281 58.3242V59.5635L71.1914 57.9814C69.7412 57.1113 68.5547 56.2412 68.5547 56.0566C68.5547 55.8457 68.7393 55.2656 68.9766 54.7119C69.1875 54.1582 69.293 53.6309 69.1611 53.5254C68.9238 53.2881 65.6016 51.917 65.5225 52.0225C65.0742 52.6289 61.4619 62.3584 61.6201 62.5166C61.8574 62.7275 65.1797 64.0986 65.2588 63.9932C65.2852 63.9668 65.5752 63.2285 65.918 62.3584C66.2607 61.4883 66.6299 60.6709 66.7354 60.5391C66.8408 60.4336 68.4756 61.251 70.374 62.3848L73.8281 64.4678V70.1894V75.9375H70.4795C68.6074 75.9375 66.8672 76.0166 66.5772 76.0693C66.1553 76.2012 65.8652 75.8848 65.0215 74.3027C63.0176 70.5059 61.0664 67.9219 57.7178 64.5469L54.3691 61.1982L52.4443 53.3408C50.9414 47.3027 50.3613 45.3516 49.9131 44.8769C49.3594 44.3232 49.1748 44.2969 44.2969 44.2969C39.3135 44.2969 39.2607 44.2969 38.6279 44.956C37.9951 45.5625 37.9688 45.6943 37.9688 49.5703C37.9688 51.7324 37.8633 53.5254 37.7314 53.5254C37.5996 53.5254 37.125 53.4463 36.6768 53.3672L35.8594 53.1826V40.3154V27.4219H52.8398H69.8203L69.9785 28.3975ZM78.3106 27.5801C78.3106 27.8437 81.4746 53.1035 81.6328 54.1582L81.791 55.1865L79.8662 55.0019C78.8115 54.9228 77.915 54.791 77.8623 54.7383C77.8096 54.6855 76.9922 48.9111 76.0693 41.8975C75.1465 34.8838 74.3027 28.7402 74.2236 28.2656L74.0654 27.4219H76.2012C77.3613 27.4219 78.3106 27.501 78.3106 27.5801ZM101.25 46.96V55.9775L99.6416 55.793C98.7451 55.7139 97.7959 55.6348 97.5322 55.6348C97.0576 55.6348 97.0313 55.2129 97.0313 46.8018V37.9687H99.1406H101.25V46.96ZM47.9619 52.8662C48.542 55.2393 49.043 57.3223 49.043 57.4805C49.043 57.6387 48.3574 57.4014 47.54 57.0059C46.6963 56.584 45.1406 55.8984 44.1123 55.5029L42.1875 54.7646V51.6269V48.5156H44.5342H46.8809L47.9619 52.8662ZM36.3604 57.6123C47.25 59.8008 56.6631 66.9727 61.6465 76.8867C63.3604 80.2881 64.7051 85.0078 65.2324 89.4375L65.3906 90.7031H63.2813C60.8818 90.7031 61.1982 91.0723 60.6445 87.4072C59.2207 77.9414 52.5762 69.0293 43.5586 64.4941C39.0234 62.2002 34.8838 61.3037 29.2676 61.3301C24.5742 61.3564 21.8057 61.8574 17.9824 63.3867C15.3984 64.4414 15.5566 64.4941 14.2646 62.2002L13.4473 60.6973L15.3457 59.9062C18.1934 58.7461 21.2256 57.8496 23.4668 57.5068C24.5479 57.3486 25.7344 57.1641 26.1035 57.1113C27.3955 56.874 34.4619 57.2168 36.3604 57.6123ZM102.568 60.1172C114.381 60.5654 124.559 60.9873 125.191 61.0664L126.299 61.1982V63.2812V65.3643L118.837 65.4434L111.375 65.5225L109.371 66.498C106.972 67.6846 105.495 69.2139 104.335 71.666L103.491 73.4326V78.0469C103.491 82.6611 103.491 82.6611 104.309 84.375C104.757 85.3242 105.495 86.5371 105.943 87.0381L106.761 87.9609L104.678 89.332L102.621 90.7031H92.4434H82.2656V83.9795V77.2295L81.6065 76.5967C81.0791 76.043 80.71 75.9375 79.4971 75.9375H78.0469V67.5V59.0625L79.5762 59.1943C80.3936 59.2734 90.7559 59.6953 102.568 60.1172ZM33.8818 65.7861C38.0479 66.4717 42.5566 68.3437 45.7734 70.7432C47.6191 72.1406 50.9414 75.5684 52.1279 77.2559C54.1055 80.1562 56.1621 85.2187 56.5576 88.1982C56.6367 88.9102 56.7686 89.7803 56.8477 90.123C56.9531 90.7031 56.9004 90.7295 55.8457 90.6504L54.7119 90.5713L54.5273 88.9893C54.1318 85.7725 52.4443 81.501 50.335 78.3896C48.9111 76.2539 44.8506 72.4834 42.5566 71.165C38.4961 68.792 35.2793 67.8164 30.5332 67.5791L27.4219 67.4209V66.4189V65.3906H29.4785C30.5859 65.3906 32.5898 65.5752 33.8818 65.7861ZM125.771 70.6641V71.7187H119.839H113.906V73.8281V75.9375H119.707C126.299 75.9375 125.64 75.6211 125.35 78.5478L125.165 80.1562H119.549H113.906V82.2656V84.375H119.443H125.007L124.822 87.1963C124.717 88.7783 124.611 90.0703 124.585 90.123C124.532 90.1758 123.979 89.833 123.319 89.3848C120.709 87.6445 117.202 86.5107 114.328 86.4844C112.245 86.4844 111.006 85.9834 109.556 84.5068C107.868 82.8457 107.578 81.8701 107.578 78.0469C107.578 76.4121 107.71 74.5928 107.895 73.9863C108.29 72.6416 110.505 70.374 111.797 69.9521C112.351 69.7676 115.304 69.6621 119.259 69.6357L125.771 69.6094V70.6641ZM29.5313 75.9375H31.6406V73.8545V71.7715L33.4336 72.1143C35.9385 72.6152 38.3115 73.5381 38.0215 73.9072C37.8897 74.0918 37.415 74.8828 36.9668 75.7002L36.1494 77.1504L37.8369 78.126C38.7598 78.6533 39.6299 79.1016 39.7354 79.1016C39.8408 79.1016 40.3418 78.3896 40.8164 77.5195C41.291 76.6494 41.792 75.9375 41.9238 75.9375C42.5039 75.9375 46.4063 79.8398 46.4063 80.4199C46.4063 80.5518 45.6943 81.0527 44.8242 81.5273C43.9541 82.0019 43.2422 82.5029 43.2422 82.6084C43.2422 82.7139 43.6904 83.584 44.2178 84.5068L45.1934 86.1943L46.6436 85.3769C47.4609 84.9287 48.252 84.4541 48.4365 84.3223C48.8057 84.0322 49.7285 86.4053 50.2295 88.9102L50.5723 90.7031H48.4893H46.4063V92.8125V94.9219H48.4893H50.5723L50.2295 96.6885C49.7285 99.2197 48.8057 101.593 48.4365 101.303C48.252 101.171 47.4609 100.696 46.6436 100.248L45.1934 99.4307L44.2178 101.118C43.6904 102.041 43.2422 102.911 43.2422 103.017C43.2422 103.122 43.9541 103.623 44.8242 104.098C45.6943 104.572 46.4063 105.073 46.4063 105.205C46.4063 105.759 42.5566 109.661 42.0029 109.687C41.8184 109.687 41.291 108.976 40.8164 108.105C40.3418 107.235 39.8408 106.523 39.7354 106.523C39.6299 106.523 38.7598 106.972 37.8369 107.499L36.1494 108.475L36.9668 109.925C37.415 110.742 37.8897 111.533 38.0215 111.718C38.3115 112.087 35.9385 113.01 33.4336 113.511L31.6406 113.854V111.771V109.687H29.5313H27.4219V111.771V113.854L25.6553 113.511C23.124 113.01 20.751 112.087 21.041 111.718C21.1729 111.533 21.6475 110.742 22.0957 109.925L22.9131 108.475L21.2256 107.499C20.3027 106.972 19.4326 106.523 19.3271 106.523C19.2217 106.523 18.7207 107.235 18.2461 108.105C17.7715 108.976 17.2705 109.687 17.1387 109.687C16.5586 109.687 12.6563 105.785 12.6563 105.205C12.6563 105.073 13.3682 104.572 14.2383 104.098C15.1084 103.623 15.8203 103.122 15.8203 103.017C15.8203 102.911 15.3721 102.041 14.8447 101.118L13.8691 99.4307L12.4189 100.248C11.6016 100.696 10.8105 101.171 10.626 101.303C10.2568 101.593 9.33398 99.2197 8.83301 96.6885L8.49023 94.9219H10.5732H12.6563V92.8125V90.7031H10.5732H8.49023L8.83301 88.9102C9.33398 86.4053 10.2568 84.0322 10.626 84.3223C10.8105 84.4541 11.6016 84.9287 12.4189 85.3769L13.8691 86.1943L14.8447 84.5068C15.3721 83.584 15.8203 82.7139 15.8203 82.6084C15.8203 82.5029 15.1084 82.0019 14.2383 81.5273C13.3682 81.0527 12.6563 80.5518 12.6563 80.4199C12.6563 79.8398 16.5586 75.9375 17.1387 75.9375C17.2705 75.9375 17.7715 76.6494 18.2461 77.5195C18.7207 78.3896 19.2217 79.1016 19.3271 79.1016C19.4326 79.1016 20.3027 78.6533 21.2256 78.126L22.9131 77.1504L22.0957 75.7002C21.6475 74.8828 21.1729 74.0918 21.041 73.9072C20.751 73.5381 23.1504 72.5889 25.5762 72.1406L27.29 71.8242L27.3691 73.8809L27.4482 75.9375H29.5313ZM78.0469 82.2656V84.375H73.8281H69.6094V82.2656V80.1562H73.8281H78.0469V82.2656ZM78.0469 90.7031V92.8125H73.8281H69.6094V90.7031V88.5937H73.8281H78.0469V90.7031ZM111.797 92.9443V94.9219H113.906H116.016V92.9443C116.016 90.6768 116.016 90.6768 118.178 91.4941C120.498 92.3643 120.472 92.3115 119.021 93.999L117.756 95.502L119.18 96.7939C119.971 97.5059 120.762 98.0596 120.894 98.0596C121.052 98.0596 121.685 97.4004 122.344 96.6094L123.53 95.1592L124.031 95.7656C124.638 96.5303 125.851 98.9033 125.692 99.0352C125.64 99.1143 124.822 99.2725 123.899 99.4307C122.977 99.5889 122.133 99.7998 122.027 99.9053C121.843 100.063 122.449 103.544 122.687 103.808C122.792 103.887 123.636 103.808 124.585 103.623C125.534 103.438 126.404 103.386 126.483 103.465C126.721 103.702 126.141 107.051 125.798 107.394C125.64 107.552 125.06 107.367 124.11 106.813C123.319 106.365 122.555 105.996 122.396 105.996C121.975 105.996 120.208 109.239 120.498 109.529C120.63 109.661 121.395 110.136 122.212 110.61L123.715 111.454L122.212 112.799C121.395 113.563 120.577 114.17 120.393 114.17C120.208 114.17 119.786 113.405 119.47 112.456C119.127 111.507 118.758 110.742 118.6 110.742C117.94 110.742 114.961 111.955 114.961 112.245C114.961 112.43 115.198 113.194 115.488 113.933C116.253 115.857 116.121 116.016 113.906 116.016C111.691 116.016 111.56 115.857 112.324 113.933C112.614 113.194 112.852 112.43 112.852 112.245C112.852 111.955 109.951 110.742 109.266 110.742C109.081 110.742 108.686 111.507 108.343 112.456C108.026 113.405 107.604 114.17 107.42 114.17C107.235 114.17 106.418 113.563 105.601 112.799L104.098 111.454L105.601 110.61C106.418 110.136 107.183 109.661 107.314 109.529C107.604 109.239 105.838 105.996 105.416 105.996C105.258 105.996 104.493 106.365 103.702 106.813C102.753 107.367 102.173 107.552 102.015 107.394C101.672 107.051 101.092 103.702 101.329 103.465C101.408 103.386 102.278 103.438 103.228 103.623C104.177 103.808 105.021 103.887 105.126 103.808C105.363 103.544 105.97 100.063 105.785 99.9053C105.68 99.7998 104.836 99.5889 103.913 99.4307C102.99 99.2725 102.173 99.1143 102.12 99.0352C101.962 98.9033 103.175 96.5303 103.781 95.7656L104.282 95.1592L105.469 96.6094C106.128 97.4004 106.787 98.0596 106.919 98.0596C107.077 98.0596 107.842 97.5059 108.633 96.7939L110.057 95.502L108.791 94.0254C108.079 93.208 107.578 92.4697 107.657 92.3906C107.921 92.1006 110.874 90.9668 111.349 90.9668C111.744 90.9668 111.797 91.2305 111.797 92.9443ZM78.0469 99.1406V101.25H73.8281H69.6094V99.1406V97.0312H73.8281H78.0469V99.1406Z" fill="#3A405A"/>
<path id="Vector_2" d="M84.375 65.3906V67.5H88.5938H92.8125V65.3906V63.2812H88.5938H84.375V65.3906Z" fill="#3A405A"/>
<path id="Vector_3" d="M84.375 71.7188V73.8281H88.5938H92.8125V71.7188V69.6094H88.5938H84.375V71.7188Z" fill="#3A405A"/>
<path id="Vector_4" d="M84.375 78.0469V80.1562H88.5938H92.8125V78.0469V75.9375H88.5938H84.375V78.0469Z" fill="#3A405A"/>
<path id="Vector_5" d="M26.3935 80.5781C19.7227 82.3711 15.583 89.3057 17.2705 95.8447C19.0371 102.595 25.9453 106.787 32.5635 105.073C38.8125 103.438 42.9258 97.4004 42.0029 91.125C40.9482 83.6631 33.5127 78.6533 26.3935 80.5781ZM33.0908 85.1924C34.7519 85.9834 36.334 87.5654 37.1777 89.2529C37.7051 90.334 37.8369 90.9668 37.8369 92.8125C37.8105 94.8428 37.7314 95.2119 36.9404 96.7148C35.9385 98.5605 35.0947 99.3779 33.1172 100.406C31.9834 100.986 31.4297 101.092 29.5312 101.092C27.6855 101.118 27.0527 100.986 25.9717 100.459C19.1162 97.084 19.6963 87.4072 26.8945 84.7969C28.5557 84.1904 31.3769 84.375 33.0908 85.1924Z" fill="#3A405A"/>
<path id="Vector_6" d="M28.0811 87.1436C27.6592 87.5391 27.4219 88.0928 27.4219 88.5938C27.4219 89.0947 27.6592 89.6484 28.0811 90.0439C28.4766 90.4658 29.0303 90.7031 29.5312 90.7031C30.0322 90.7031 30.5859 90.4658 30.9814 90.0439C31.4033 89.6484 31.6406 89.0947 31.6406 88.5938C31.6406 88.0928 31.4033 87.5391 30.9814 87.1436C30.5859 86.7217 30.0322 86.4844 29.5312 86.4844C29.0303 86.4844 28.4766 86.7217 28.0811 87.1436Z" fill="#3A405A"/>
<path id="Vector_7" d="M23.8623 91.3623C23.4404 91.7578 23.2031 92.3115 23.2031 92.8125C23.2031 93.3135 23.4404 93.8672 23.8623 94.2627C24.2578 94.6846 24.8115 94.9219 25.3125 94.9219C25.8135 94.9219 26.3672 94.6846 26.7627 94.2627C27.1846 93.8672 27.4219 93.3135 27.4219 92.8125C27.4219 92.3115 27.1846 91.7578 26.7627 91.3623C26.3672 90.9404 25.8135 90.7031 25.3125 90.7031C24.8115 90.7031 24.2578 90.9404 23.8623 91.3623Z" fill="#3A405A"/>
<path id="Vector_8" d="M32.2998 91.3623C31.8779 91.7578 31.6406 92.3115 31.6406 92.8125C31.6406 93.3135 31.8779 93.8672 32.2998 94.2627C32.6953 94.6846 33.249 94.9219 33.75 94.9219C34.251 94.9219 34.8047 94.6846 35.2002 94.2627C35.6221 93.8672 35.8594 93.3135 35.8594 92.8125C35.8594 92.3115 35.6221 91.7578 35.2002 91.3623C34.8047 90.9404 34.251 90.7031 33.75 90.7031C33.249 90.7031 32.6953 90.9404 32.2998 91.3623Z" fill="#3A405A"/>
<path id="Vector_9" d="M28.0811 95.5811C27.6592 95.9766 27.4219 96.5303 27.4219 97.0312C27.4219 97.5322 27.6592 98.0859 28.0811 98.4814C28.4766 98.9033 29.0303 99.1406 29.5312 99.1406C30.0322 99.1406 30.5859 98.9033 30.9814 98.4814C31.4033 98.0859 31.6406 97.5322 31.6406 97.0312C31.6406 96.5303 31.4033 95.9766 30.9814 95.5811C30.5859 95.1592 30.0322 94.9219 29.5312 94.9219C29.0303 94.9219 28.4766 95.1592 28.0811 95.5811Z" fill="#3A405A"/>
<path id="Vector_10" d="M111.797 97.374C110.505 97.7959 108.29 100.063 107.895 101.408C107.156 103.887 107.684 105.864 109.556 107.71C112.219 110.399 115.594 110.399 118.257 107.71C120.841 105.152 120.92 101.856 118.468 99.1406C116.754 97.2422 114.302 96.583 111.797 97.374ZM115.356 101.909C116.675 103.201 115.752 105.469 113.906 105.469C112.825 105.469 111.797 104.44 111.797 103.359C111.797 102.278 112.825 101.25 113.906 101.25C114.407 101.25 114.961 101.487 115.356 101.909Z" fill="#3A405A"/>
</g>
</g>
</svg>
