<svg width="135" height="135" viewBox="0 0 135 135" fill="none" xmlns="http://www.w3.org/2000/svg">
<g id="Frame">
<g id="Group">
<path id="Vector" d="M116.142 4.45887C112.159 5.00522 108.352 6.64425 105.127 9.21735C104.281 9.89588 84.375 29.7141 83.7229 30.5336C83.485 30.8244 83.2118 31.2386 83.0972 31.4501C82.6038 32.4194 82.6214 32.2696 82.5685 36.658C82.5245 40.641 82.5156 40.7644 82.3306 41.108C82.2337 41.3019 80.6916 42.9057 78.8763 44.7209C77.0786 46.5098 75.5894 47.999 75.563 48.0166C75.5365 48.0343 75.1312 47.673 74.6553 47.2147C74.0121 46.5891 73.6331 46.2983 73.1397 46.0604C71.5799 45.2849 70.1083 45.3025 68.4693 46.0956L67.7203 46.4569L34.6224 79.5636C-1.71837 115.904 1.00455 113.093 0.414141 114.803C0.0440368 115.878 -0.0176473 117.341 0.255525 118.433C0.484637 119.359 0.907614 120.249 1.43633 120.945C1.65663 121.236 3.65696 123.28 5.87759 125.492C9.87824 129.466 9.9223 129.51 10.7242 129.924C11.8345 130.488 12.6628 130.691 13.8789 130.691C15.4474 130.691 16.7869 130.242 17.9765 129.316C18.7607 128.699 134.718 12.6717 134.824 12.3985C134.947 12.0548 134.938 11.5085 134.788 11.1648C134.639 10.7947 133.255 9.48172 132.163 8.67101C129.087 6.37989 125.553 4.94353 121.756 4.45006C120.443 4.28263 117.429 4.28263 116.142 4.45887ZM122.09 7.65763C124.584 8.09823 126.981 9.00587 129.008 10.2836C129.642 10.689 131.035 11.7376 131.035 11.8169C131.035 11.8433 120.716 22.1886 108.106 34.7986L85.1769 57.7275L81.4758 54.0264L77.766 50.3166L81.1322 46.9504C84.6658 43.3991 85.0447 42.9497 85.406 41.8659C85.591 41.3107 85.6087 41.108 85.6527 37.2748C85.688 34.2787 85.7232 33.1948 85.8113 33.001C85.9435 32.6926 105.55 13.0241 106.854 11.8962C109.71 9.42003 113.331 7.88674 117.332 7.45496C118.248 7.35802 121.059 7.48139 122.09 7.65763ZM71.624 48.7745C71.8531 48.8714 73.6243 50.5897 77.4399 54.3965C80.4536 57.4102 82.921 59.904 82.921 59.9305C82.921 60.0098 74.3733 68.5574 74.294 68.5574C74.2676 68.5574 71.5271 65.8433 68.2049 62.5212L62.1687 56.485L65.9138 52.7399C68.2578 50.3959 69.7911 48.9243 70.0114 48.8185C70.4432 48.607 71.1658 48.5894 71.624 48.7745ZM65.9931 64.7771C69.2888 68.0816 71.9941 70.8133 71.9941 70.8486C71.9941 70.9895 15.985 126.919 15.6413 127.113C14.3107 127.889 12.7069 127.704 11.4644 126.629C11.1472 126.347 9.29665 124.523 7.34919 122.566C3.52478 118.715 3.45428 118.618 3.25161 117.482C3.13705 116.838 3.23398 116.151 3.53359 115.42C3.70983 114.997 6.49443 112.177 31.8025 86.86C47.2412 71.4125 59.904 58.7761 59.9305 58.7761C59.9657 58.7761 62.6886 61.4814 65.9931 64.7771Z" fill="#3A405A"/>
<path id="Vector_2" d="M31.3708 6.57381C25.405 6.97916 20.1266 9.30553 15.9586 13.3414C10.2131 18.9282 7.64883 26.8062 8.98825 34.7634C10.4599 43.4256 16.7428 50.7308 25.1142 53.4889C27.5111 54.282 29.3969 54.6081 32.0317 54.6962C35.1599 54.7931 38.1736 54.3173 41.0287 53.2686C43.1524 52.4932 45.9635 50.9158 47.7611 49.4795C49.7614 47.8933 51.8763 45.4965 53.251 43.2582C59.0757 33.7941 57.6658 21.5718 49.8407 13.7027C48.422 12.2752 47.576 11.579 45.9723 10.5128C42.9674 8.51245 39.4866 7.22589 35.8208 6.75005C34.8251 6.61787 32.2255 6.51212 31.3708 6.57381ZM34.9661 9.79019C38.1119 10.125 41.6896 11.4116 44.1922 13.0859C49.5235 16.6547 52.8456 22.0829 53.577 28.3923C53.718 29.6084 53.6475 32.7807 53.4449 33.9263C52.4315 39.8568 49.1622 44.906 44.2539 48.1489C37.4599 52.6254 28.639 52.7576 21.7304 48.4837C16.3727 45.1704 12.8215 39.6893 11.9315 33.3535C11.7552 32.0846 11.7288 29.5027 11.8874 28.2866C12.5131 23.3695 14.5486 19.1838 17.9765 15.7647C21.3956 12.3633 25.5636 10.3894 30.7099 9.75494C31.3179 9.67563 34.173 9.70207 34.9661 9.79019Z" fill="#3A405A"/>
<path id="Vector_3" d="M27.9957 16.1436C27.7754 16.2758 27.5904 16.4873 27.4494 16.7781L27.2291 17.2187V21.2105V25.2023H23.1667C19.1397 25.2023 19.0956 25.2023 18.7519 25.3962C18.5669 25.5019 18.3201 25.7311 18.2144 25.9073C18.0205 26.2157 18.0205 26.2598 17.9941 30.516C17.9677 34.6136 17.9765 34.8339 18.1439 35.204C18.2585 35.4595 18.4435 35.671 18.6902 35.8384L19.0692 36.0852L23.1403 36.1116L27.2203 36.138L27.2467 40.218L27.2731 44.2891L27.5111 44.6504C27.6521 44.8619 27.8988 45.0822 28.1279 45.1968C28.5068 45.373 28.6214 45.3818 32.7366 45.3818C36.8342 45.3818 36.9663 45.373 37.3365 45.1968C37.5391 45.0999 37.8035 44.8884 37.9092 44.7386C38.1119 44.4566 38.1119 44.4566 38.1383 40.2973L38.1648 36.138L42.2888 36.1116L46.404 36.0852L46.7212 35.8737C46.8887 35.7591 47.1266 35.5212 47.2412 35.3538L47.4526 35.0365L47.4791 30.8773C47.4967 28.0662 47.4703 26.5858 47.4086 26.3479C47.294 25.9337 46.8975 25.4403 46.5538 25.2993C46.3864 25.2376 44.9853 25.1935 42.2536 25.1847L38.2 25.1583L38.156 20.999C38.1119 16.9543 38.1031 16.8397 37.9269 16.593C37.8299 16.4608 37.6096 16.2581 37.451 16.1436L37.1602 15.9497H32.7454C28.3746 15.9497 28.3306 15.9585 27.9957 16.1436ZM35.0718 22.9993C35.0718 26.3743 35.0894 27.0176 35.2039 27.2908C35.3802 27.7138 35.5652 27.9164 35.9706 28.1191C36.279 28.2777 36.5434 28.2865 40.3149 28.2865H44.3244V30.6217V32.9481L40.2532 32.9745L36.1733 33.001L35.8472 33.2036C35.671 33.3182 35.4331 33.5561 35.3185 33.7324C35.1158 34.0584 35.1158 34.0672 35.0718 38.156L35.0277 42.2536L32.719 42.28L30.4102 42.2976L30.3838 38.1736L30.3573 34.0496L30.1194 33.6883C29.6612 32.9921 29.7317 33.001 25.1847 32.9745L21.1488 32.9481V30.6217V28.2865H25.1406C28.8152 28.2865 29.1501 28.2689 29.4761 28.1191C29.67 28.031 29.8991 27.8724 29.9872 27.7754C30.375 27.3437 30.3926 27.1145 30.4014 22.9729V19.0339H32.7366H35.0718V22.9993Z" fill="#3A405A"/>
</g>
</g>
</svg>
