<svg width="135" height="135" viewBox="0 0 135 135" fill="none" xmlns="http://www.w3.org/2000/svg">
<g id="Frame" clip-path="url(#clip0_10_142)">
<g id="Group">
<path id="Vector" d="M17.2178 0.263733C16.1104 0.711975 16.0049 1.37115 16.4795 4.71979C16.7168 6.40729 17.2705 9.59772 17.6924 11.8389C18.1406 14.0538 18.4571 15.9258 18.4043 15.9786C18.3516 16.0313 17.5869 15.8467 16.7432 15.5831C14.0537 14.7393 10.5996 14.4229 6.24904 14.5811C-0.210916 14.7921 -0.632791 15.1876 0.527365 19.9864C1.10744 22.4122 2.66311 26.0508 3.34865 26.5518C4.08694 27.1055 5.24709 26.9473 5.98537 26.209C6.75002 25.418 6.75002 25.2862 5.43166 22.1485C4.93069 20.9092 4.42971 19.5645 4.32424 19.1426L4.13967 18.378L8.72756 18.5098C12.6826 18.6417 13.6319 18.7471 15.6358 19.3536C16.9278 19.7227 18.5889 20.3555 19.3272 20.7247C22.7022 22.4122 26.0508 25.4971 27.5537 28.2393L28.292 29.6104L27.3955 31.2715L26.499 32.959H24.4688C20.4346 32.959 16.4268 32.0889 13.3682 30.5596C12.5244 30.1378 11.5752 29.795 11.2324 29.795C9.83498 29.795 8.9385 32.0889 9.96682 33.1172C11.6807 34.8575 18.9844 36.8878 23.5723 36.9141C24.5742 36.9141 24.8115 36.9932 24.7061 37.2833C24.126 38.7598 23.7041 42.1876 23.7041 45.088C23.7305 51.627 25.0225 56.1622 29.3203 64.5469C32.5899 70.9542 33.75 73.7227 34.6729 77.5987C35.4639 80.7628 35.5957 82.6085 35.7012 91.0987C35.7539 95.8975 35.8858 97.9278 36.2285 99.5362C37.9688 107.499 41.8184 112.272 48.5156 114.724C52.4444 116.148 58.7461 116.754 63.624 116.174L65.417 115.963L67.8428 118.441C71.8242 122.476 73.8809 126.088 75.2783 131.52C76.0166 134.446 76.5703 135.158 77.9151 134.895C78.8379 134.71 79.6289 133.866 79.6289 133.075C79.6289 132.126 78.2578 127.301 77.335 124.981C75.8321 121.21 74.1182 118.494 71.6397 115.831L70.374 114.486L72.167 113.537C73.169 113.01 74.5928 112.034 75.3574 111.375C76.4912 110.399 76.7285 110.03 76.7285 109.318C76.7285 108.29 75.8057 107.315 74.8565 107.315C74.461 107.315 73.5381 107.815 72.6416 108.501C68.6865 111.586 62.8858 112.931 56.3203 112.324C50.8623 111.797 47.6192 110.531 44.6924 107.815C42.794 106.023 41.2119 103.228 40.4737 100.327C39.7881 97.585 39.419 92.9971 39.7881 91.3887C40.9746 86.0362 47.6719 82.5557 57.6123 82.0811C67.5791 81.6065 76.3067 84.4278 78.6533 88.8575C79.418 90.2813 79.418 90.3604 79.2862 93.3399C79.1807 95.2911 78.8906 97.3213 78.4424 99.0088C77.6514 102.173 77.6514 102.067 78.3106 102.779C78.7061 103.175 79.1807 103.359 79.8926 103.359C81.0264 103.359 81.4219 102.964 81.9756 101.25C82.8985 98.2706 83.1094 96.4249 83.3203 88.5938C83.6367 77.3878 84.1377 75.463 89.3848 64.9952C91.2041 61.3565 93.0235 57.4014 93.419 56.1622C94.3418 53.3409 95.1856 49.3067 95.1856 47.6456C95.1856 46.96 95.2383 46.4063 95.3174 46.4063C95.3965 46.4063 96.0821 46.7227 96.8467 47.1182C97.6114 47.5137 99.2197 48.1729 100.459 48.6212L102.674 49.4385L103.148 50.9678C103.992 53.7628 104.493 58.1397 104.335 61.4356C104.124 65.628 103.623 67.7901 101.382 74.4874C98.7979 82.1075 98.2705 84.3223 98.2705 87.8028C98.2442 91.336 98.7715 93.2081 100.063 94.3682C101.988 96.0557 103.913 96.0557 109.503 94.3419C111.955 93.6036 113.669 93.2344 115.277 93.1553C118.652 92.9444 119.391 93.2872 123.056 96.8204C126.51 100.169 127.696 100.828 130.254 100.828C132.126 100.828 133.313 100.38 134.367 99.2198C135.897 97.5587 134.262 95.2383 132.179 96.1085C131.73 96.293 131.282 96.5831 131.203 96.7413C130.86 97.2686 129.331 97.0577 128.118 96.293C127.485 95.8712 125.903 94.4473 124.585 93.129C121.658 90.1758 120.103 89.3585 116.965 89.1739C114.302 89.0157 111.981 89.4376 107.578 90.8614C105.627 91.4942 103.887 92.0215 103.702 92.0215C102.437 92.0215 101.83 89.3057 102.331 85.7462C102.647 83.3731 103.254 81.211 105.442 74.7774C107.789 67.8956 108.211 65.7071 108.211 60.2491C108.211 56.3731 107.947 53.71 107.42 51.8643C107.288 51.4161 107.367 51.4424 108.422 51.9698C109.028 52.2862 111.401 53.7628 113.643 55.2657C121.105 60.1964 123.662 61.1719 129.647 61.3829L133.655 61.4883L134.314 60.8292C135.132 60.0118 135.185 59.1153 134.446 58.1661C133.919 57.4805 133.84 57.4805 130.702 57.4805C125.165 57.4805 122.766 56.5577 115.62 51.8116C110.821 48.6212 107.525 46.9337 102.964 45.3516C98.086 43.6378 96.794 42.8467 95.5811 40.7637C95.1065 39.92 94.21 37.5997 94.1309 37.0196C94.1309 36.9932 95.1856 36.9141 96.5039 36.835C108.448 35.9649 116.648 29.1622 118.415 18.6153C118.995 15.1348 118.468 14.7921 112.298 14.5811C108.079 14.4229 105.047 14.6866 102.331 15.4512C101.566 15.6622 100.881 15.794 100.802 15.7149C100.723 15.6358 100.96 14.0538 101.355 12.2081C101.725 10.3624 102.278 7.25104 102.542 5.29987C103.122 1.37115 103.017 0.791077 101.698 0.237366C100.485 -0.263611 99.7471 0.316467 98.4815 2.76862C97.0576 5.5899 95.9502 7.17194 93.8936 9.33405C89.5957 13.8165 84.7705 16.0577 76.8076 17.2706L73.9072 17.7188L71.0332 17.0596C67.0781 16.1368 64.125 15.8204 59.1944 15.8204C54.6856 15.8204 50.9151 16.2422 47.4082 17.1651C45.2725 17.6924 45.167 17.6924 42.3194 17.2706C36.3604 16.3741 33.1699 15.2667 29.4522 12.8145C25.5762 10.2833 22.834 7.17194 20.6719 2.84772C19.3008 0.10553 18.6944 -0.342712 17.2178 0.263733ZM27.1846 16.1104C29.3994 17.587 33.1436 19.3536 35.833 20.1182L38.0479 20.751L36.0967 22.0958C35.0156 22.8077 33.4336 24.0469 32.5635 24.838L31.0078 26.2881L30.2168 25.1016C29.1094 23.4141 26.7891 20.9883 25.0225 19.6172C23.3086 18.2989 22.9395 17.4815 21.7793 12.2872C21.6211 11.6016 21.753 11.6807 23.5723 13.2628C24.6533 14.212 26.2881 15.4776 27.1846 16.1104ZM97.4268 11.918C97.374 12.1026 97.0576 13.3155 96.7412 14.6339C96.0293 17.6661 95.7393 18.1934 94.3418 19.1163C92.6543 20.2237 90.2813 22.5967 88.9365 24.4688L87.75 26.1036L86.1416 24.627C85.2451 23.8096 83.7686 22.6758 82.8721 22.0958C81.2373 21.0411 80.8418 20.5665 81.5801 20.5665C82.3447 20.5665 86.1944 19.169 88.4883 18.0616C91.0459 16.8223 94.3946 14.4493 96.1084 12.6827C97.1367 11.6016 97.6377 11.3116 97.4268 11.918ZM114.434 18.6944C114.434 18.8262 114.091 19.8809 113.695 21.0147C112.825 23.4932 110.9 26.4727 109.239 27.9493C105.653 31.087 100.143 32.959 94.3946 32.959H92.6016L91.5205 31.2188L90.4395 29.4786L91.125 28.1866C92.6016 25.4971 95.9766 22.4122 99.2725 20.751C100.802 19.9864 103.781 19.0372 105.653 18.7208C107.446 18.4307 114.434 18.4044 114.434 18.6944ZM67.7637 20.4083C74.6983 21.7794 80.209 24.4424 84.2432 28.3975C92.6016 36.545 93.6563 48.1729 87.1963 60.6182C84.0322 66.7354 83.294 68.212 82.2656 70.8223C81.0528 73.9337 80.0508 77.7569 79.6026 81.0264L79.2862 83.3204L78.6006 82.8721C73.8545 79.7344 69.3457 78.4952 61.4356 78.1524C52.8135 77.7833 45.7735 79.4708 40.9746 83.0567L39.6299 84.085L39.4717 82.1338C38.9444 75.9903 37.1514 70.9805 31.7989 60.6446C28.8721 55.002 27.6328 50.4405 27.6328 45.1934C27.6328 38.4434 29.9004 33.1172 34.7256 28.4503C39.0498 24.2579 44.1123 21.7794 51.0205 20.461C54.2373 19.8546 54.5801 19.8282 60.249 19.9073C63.8614 19.96 66.2344 20.1182 67.7637 20.4083Z" fill="#3A405A"/>
<path id="Vector_2" d="M38.8389 56.4786C37.5996 57.8233 38.4697 59.8536 40.2891 59.8536C41.4756 59.8536 42.9522 60.5128 43.9541 61.4883C44.8242 62.3321 45.167 63.1231 45.4834 64.9161C45.7471 66.6036 47.6455 67.3155 48.8057 66.1553C49.3067 65.6544 49.3594 65.3643 49.2539 63.9669C48.9112 59.7745 45.3516 56.3204 41.0274 55.9776C39.5772 55.8458 39.3662 55.8985 38.8389 56.4786Z" fill="#3A405A"/>
<path id="Vector_3" d="M75.4893 56.3995C72.0352 57.586 69.6885 60.5127 69.3984 63.9405C69.2666 65.7334 69.583 66.2872 70.875 66.6299C72.2725 66.9727 73.0371 66.1026 73.4326 63.7295C73.749 61.8047 76.2012 59.8799 78.3369 59.8536C80.1826 59.8536 81.1318 57.6915 79.8135 56.4786C79.0488 55.7403 77.4141 55.7139 75.4893 56.3995Z" fill="#3A405A"/>
<path id="Vector_4" d="M53.2354 91.5205C52.1279 91.9424 51.9434 92.7334 51.9434 97.5322C51.9434 101.619 51.9961 102.015 52.4971 102.674C52.9189 103.201 53.2617 103.359 54.0264 103.359C55.8193 103.359 55.8984 103.069 55.8984 97.374C55.8984 92.9443 55.8457 92.3115 55.4502 91.9688C54.791 91.3887 54.0264 91.2305 53.2354 91.5205Z" fill="#3A405A"/>
<path id="Vector_5" d="M64.0723 91.415C62.8066 91.8897 62.7539 92.1006 62.7539 97.2686C62.7539 102.938 62.8857 103.359 64.5469 103.359C66.5244 103.359 66.709 102.806 66.709 97.4531C66.709 95.0801 66.6035 92.8125 66.4717 92.4697C66.3135 92.1006 65.8652 91.7051 65.3643 91.5205C64.916 91.3623 64.5205 91.2305 64.4941 91.2568C64.4678 91.2568 64.2832 91.3359 64.0723 91.415Z" fill="#3A405A"/>
</g>
</g>
<defs>
<clipPath id="clip0_10_142">
<rect width="135" height="135" fill="white"/>
</clipPath>
</defs>
</svg>
