<svg width="101" height="109" viewBox="0 0 101 109" fill="none" xmlns="http://www.w3.org/2000/svg">
<path d="M35.3974 50.5433C43.9225 50.5433 50.8333 43.6283 50.8333 35.0982C50.8333 26.5681 43.9225 19.6531 35.3974 19.6531C26.8724 19.6531 19.9616 26.5681 19.9616 35.0982C19.9616 43.6283 26.8724 50.5433 35.3974 50.5433Z" fill="black"/>
<path d="M72.0577 50.5433C70.325 50.5433 68.6309 50.7209 66.9831 51.0182C68.9281 45.5236 70.1282 40.1101 70.1282 35.0982C70.1282 15.9037 54.5804 0.346664 35.3974 0.346664C16.2145 0.346664 0.666687 15.9037 0.666687 35.0982C0.666687 62.1271 35.3974 100.74 35.3974 100.74C35.3974 100.74 39.4648 96.2183 44.8095 89.1908C48.7958 100.412 59.4736 108.462 72.0577 108.462C88.0454 108.462 101 95.5001 101 79.5028C101 63.5056 88.0454 50.5433 72.0577 50.5433ZM35.3974 94.8051C27.2434 85.0245 4.52566 55.9027 4.52566 35.0982C4.52566 18.0661 18.3755 4.20794 35.3974 4.20794C52.4194 4.20794 66.2692 18.0661 66.2692 35.0982C66.2692 40.4151 64.7719 46.2765 62.4257 52.2191C51.1845 56.1923 43.1154 66.8919 43.1154 79.5028C43.1154 81.1786 43.289 82.8081 43.5591 84.4105C40.3253 88.7738 37.4118 92.3841 35.3974 94.8051ZM72.0577 104.601C58.204 104.601 46.9744 93.3648 46.9744 79.5028C46.9744 65.6409 58.204 54.4045 72.0577 54.4045C85.9114 54.4045 97.141 65.6409 97.141 79.5028C97.141 93.3648 85.9114 104.601 72.0577 104.601Z" fill="black"/>
<path d="M73.9872 87.1984V65.9884H70.1282V87.2061L59.1031 75.3327L56.2745 77.9661L72.0538 94.948L87.837 77.9661L85.0084 75.3327L73.9872 87.1984Z" fill="black"/>
</svg>
