<svg width="759" height="1254" viewBox="0 0 759 1254" fill="none" xmlns="http://www.w3.org/2000/svg">
<mask id="mask0_207_22" style="mask-type:luminance" maskUnits="userSpaceOnUse" x="0" y="-1" width="759" height="1255">
<path d="M759 1253.28H0V-0.00952148H759V1253.28Z" fill="white"/>
</mask>
<g mask="url(#mask0_207_22)">
<path d="M743.166 667.394C648.939 593.152 543.292 561.742 452.441 549.801V366.794C452.441 366.274 452.441 366.014 452.441 365.495V365.236V364.976C452.441 364.717 452.441 364.717 452.441 364.457C452.441 364.197 452.441 364.197 452.441 363.938C452.441 363.678 452.441 363.419 452.181 363.159C452.181 362.9 452.181 362.9 451.921 362.64C451.921 362.38 451.921 362.38 451.921 362.12C451.662 361.602 451.662 361.083 451.403 360.823C451.403 360.563 451.143 360.563 451.143 360.303L450.883 360.044C450.883 360.044 450.883 359.785 450.624 359.785C450.364 359.265 450.104 359.006 449.845 358.746C449.845 358.746 449.845 358.746 449.586 358.486C449.586 358.227 449.326 358.227 449.326 357.968C449.066 357.708 449.066 357.708 448.807 357.448C448.547 357.189 448.028 356.929 447.769 356.409C447.769 356.409 447.769 356.409 447.509 356.409L447.249 356.151C444.913 354.592 437.385 349.92 423.888 346.286C440.501 335.643 452.441 319.03 452.96 297.744C453.738 271.006 446.211 256.469 438.424 241.154C431.415 227.396 424.147 213.118 420.772 185.602C419.215 173.662 411.169 165.614 400.007 165.614C370.934 165.614 317.461 229.732 309.934 266.334C303.185 298.262 315.644 328.893 339.525 345.767C323.432 349.92 315.644 355.371 314.347 356.409C314.087 356.669 313.827 356.929 313.568 357.189C313.308 357.448 313.308 357.448 313.048 357.708L312.788 357.968L312.53 358.227C312.27 358.746 311.751 359.006 311.491 359.525L311.231 359.785V360.044L310.971 360.303C310.971 360.563 310.713 360.563 310.713 360.563C310.453 361.082 310.193 361.342 310.193 361.861C309.934 362.12 309.934 362.64 309.934 362.9C309.934 363.159 309.674 363.419 309.674 363.678C309.414 364.976 309.154 366.274 309.414 367.312V545.388C284.755 546.946 265.805 549.542 254.385 551.359C244.261 552.917 235.176 558.108 228.427 565.896L10.9021 817.953C2.59566 827.558 -1.29797 844.172 0.519061 856.113L51.9151 1241.85C52.4343 1245.49 54.2513 1248.6 57.1066 1250.69C59.4428 1252.24 62.0385 1253.28 64.6343 1253.28C65.4131 1253.28 66.1917 1253.28 66.9705 1253.02L728.11 1130.75C734.081 1129.72 738.493 1124.52 738.753 1118.55L757.443 718.792C757.443 718.792 757.962 713.081 758.221 710.744C760.817 694.131 756.404 677.777 743.166 667.394ZM334.852 271.785C340.563 244.009 378.461 202.216 395.074 193.39C399.228 222.723 407.793 239.337 414.543 253.095C421.551 267.112 426.743 276.977 426.223 297.224C425.705 314.356 410.649 326.817 393.517 331.23V311.242C393.517 303.973 387.806 298.262 380.538 298.262C373.27 298.262 367.559 303.973 367.559 311.242V331.23C343.159 323.702 329.143 298.522 334.852 271.785ZM334.594 384.445C364.444 392.233 396.632 392.233 426.483 384.445V695.17C418.955 697.505 411.427 699.322 403.641 700.361C395.853 701.399 388.066 702.178 380.279 702.178C364.704 702.178 349.13 699.842 334.334 695.17V384.445H334.594ZM713.315 1107.13L75.7961 1224.98L61.2598 1115.96L719.025 986.161L713.315 1107.13ZM724.736 863.64C724.476 863.64 724.476 863.64 724.217 863.64L45.9448 1002L30.6298 887.262C34.7831 888.561 38.9363 889.079 43.3491 889.079C46.464 889.079 49.5789 888.821 52.9534 888.042L725.255 743.452C727.072 742.934 728.889 742.674 730.447 741.895L724.736 863.64ZM733.042 705.033C732.782 705.812 732.523 706.592 732.264 707.37C730.187 712.821 725.774 716.975 719.804 718.272L45.6853 863.122C34.783 864.939 30.1107 857.93 28.0342 853.517C28.0342 853.257 28.0342 853.257 27.7745 853.257C26.7363 850.662 25.1788 845.729 27.5149 840.018C28.2937 838.461 29.0724 836.903 30.6298 835.346L247.116 582.768C249.712 579.654 253.346 577.577 257.499 577.057C267.882 575.5 285.533 573.164 308.376 571.606V704.515C308.376 709.966 311.751 714.898 316.942 716.715C337.189 724.243 358.734 727.877 380.279 727.877C400.785 727.877 420.772 724.503 439.981 717.753L443.356 716.455C448.547 714.638 451.921 709.706 451.921 704.255V576.019C538.361 587.701 638.037 618.072 726.553 687.641C732.264 692.054 734.599 698.284 733.042 705.033Z" fill="#D6EDFF"/>
<path d="M0.519093 856.373C0.259517 854.556 -5.90698e-05 857.93 0.519093 856.373Z" fill="#D6EDFF"/>
<path d="M540.177 262.181C540.177 269.449 545.888 275.16 553.156 275.16H629.472C636.74 275.16 642.45 269.449 642.45 262.181C642.45 254.913 636.74 249.202 629.472 249.202H553.156C545.888 249.202 540.177 254.913 540.177 262.181Z" fill="#D6EDFF"/>
<path d="M131.345 275.16H207.661C214.929 275.16 220.639 269.449 220.639 262.181C220.639 254.913 214.929 249.202 207.661 249.202H131.345C124.077 249.202 118.366 254.913 118.366 262.181C118.366 269.449 124.077 275.16 131.345 275.16Z" fill="#D6EDFF"/>
<path d="M392.998 511.382V435.064C392.998 427.796 387.288 422.085 380.019 422.085C372.751 422.085 367.041 427.796 367.041 435.064V511.382C367.041 518.651 372.751 524.362 380.019 524.362C387.028 524.362 392.998 518.391 392.998 511.382Z" fill="#D6EDFF"/>
<path d="M379.76 102.535C387.028 102.535 392.739 96.8235 392.739 89.5549V13.2366C392.739 5.96821 387.028 0.257324 379.76 0.257324C372.492 0.257324 366.781 5.96821 366.781 13.2366V89.5549C366.781 96.5638 372.751 102.535 379.76 102.535Z" fill="#D6EDFF"/>
<path d="M248.674 375.101L194.682 429.094C189.49 434.286 189.49 442.333 194.682 447.525C197.278 450.121 200.652 451.419 203.767 451.419C206.882 451.419 210.516 450.121 212.852 447.525L266.844 393.531C272.036 388.339 272.036 380.292 266.844 375.101C261.913 369.909 253.606 369.909 248.674 375.101Z" fill="#D6EDFF"/>
<path d="M502.02 152.894C505.394 152.894 508.769 151.596 511.105 149L565.096 95.0063C570.288 89.8143 570.288 81.7671 565.096 76.5755C559.905 71.3837 551.858 71.3837 546.667 76.5755L492.935 130.829C487.743 136.02 487.743 144.068 492.935 149.26C495.27 151.856 498.646 152.894 502.02 152.894Z" fill="#D6EDFF"/>
<path d="M249.193 149.261C251.789 151.857 255.163 153.155 258.279 153.155C261.393 153.155 265.027 151.857 267.364 149.261C272.555 144.07 272.555 136.022 267.364 130.831L213.371 76.8367C208.18 71.6449 200.133 71.6449 194.941 76.8367C189.75 82.0284 189.75 90.0756 194.941 95.267L249.193 149.261Z" fill="#D6EDFF"/>
<path d="M493.454 375.101C488.263 380.292 488.263 388.339 493.454 393.531L547.446 447.525C550.042 450.121 553.416 451.419 556.531 451.419C559.645 451.419 563.279 450.121 565.616 447.525C570.807 442.333 570.807 434.286 565.616 429.094L511.624 375.101C506.692 369.909 498.386 369.909 493.454 375.101Z" fill="#D6EDFF"/>
</g>
</svg>
