<svg width="1024" height="1238" viewBox="0 0 1024 1238" fill="none" xmlns="http://www.w3.org/2000/svg">
<path d="M1021.82 1121.05L808.507 687.402C815.76 672.463 820.88 656.458 823.653 639.598C830.693 595.208 820.027 550.605 793.575 514.111C790.802 510.27 787.816 506.429 784.616 502.8C789.309 501.734 793.788 500.453 798.481 498.959C841.358 485.087 876.342 455.423 896.82 415.088C917.294 374.966 920.923 329.296 907.059 286.187C878.261 197.833 782.696 149.176 694.171 177.986C689.691 179.48 685.211 181.188 680.732 182.895C681.158 178.199 681.371 173.504 681.371 168.596C680.945 75.7615 605.219 0 512 0C418.781 0 343.055 75.7615 343.055 168.81C343.055 173.504 343.268 178.413 343.695 183.109C339.429 181.188 334.949 179.694 330.256 178.199C241.73 149.389 146.165 197.833 117.155 286.4C103.289 329.296 106.916 374.966 127.394 415.088C147.872 455.21 182.855 485.087 225.732 498.959C230.211 500.453 234.904 501.734 239.597 502.8C236.398 506.429 233.411 510.27 230.638 514.111C204.187 550.605 193.307 595.208 200.347 639.598C203.12 656.458 208.24 672.463 215.493 687.402L2.17778 1121.05C-1.87521 1129.38 -0.168689 1139.41 6.44407 1145.82C13.0568 1152.22 23.2959 1153.71 31.4019 1149.23L159.391 1079.65L192.667 1221.36C194.801 1230.11 202.053 1236.73 211.013 1237.8C211.867 1237.8 212.507 1238.01 213.36 1238.01C221.466 1238.01 228.932 1233.53 232.558 1226.05L465.071 750.573C479.576 740.329 492.802 727.737 503.894 712.585C506.667 708.743 509.44 704.689 512 700.635C514.56 704.689 517.12 708.743 520.106 712.798C531.198 727.951 544.424 740.755 559.142 750.999L791.442 1225.84C795.068 1233.32 802.534 1237.8 810.641 1237.8C811.494 1237.8 812.134 1237.8 812.987 1237.58C821.947 1236.52 829.413 1230.11 831.332 1221.15L864.609 1079.44L992.594 1149.02C1000.7 1153.5 1010.94 1152 1017.55 1145.6C1024.16 1139.41 1025.87 1129.38 1021.82 1121.05ZM220.612 1153.28L194.587 1042.52C193.094 1036.11 188.614 1030.57 182.642 1028.01C176.669 1025.24 169.63 1025.45 163.657 1028.65L70.0119 1079.44L243.224 727.311C250.69 735.421 259.009 742.676 267.968 749.292C297.832 771.06 332.603 781.517 366.946 781.517C379.532 781.517 391.904 780.024 404.063 777.249L220.612 1153.28ZM554.449 687.189C543.57 672.25 536.318 655.604 532.905 637.677C530.985 627.647 522.239 620.391 512 620.391C501.761 620.391 493.015 627.647 491.095 637.677C487.682 655.604 480.43 672.25 469.551 687.189C428.594 743.53 349.454 755.908 293.139 715.146C265.835 695.299 247.917 666.061 242.584 632.769C237.251 599.476 245.357 566.184 265.195 539.081C275.86 524.355 289.513 512.19 305.511 503.227C314.47 498.319 318.523 487.648 315.323 477.831C312.337 469.081 304.231 463.105 295.059 463.105C294.205 463.105 293.352 463.105 292.286 463.319C274.581 465.454 256.662 463.746 238.957 458.197C206.96 447.74 180.935 425.545 165.577 395.667C150.218 365.576 147.445 331.43 157.897 299.418C179.442 233.26 250.903 197.193 317.243 218.534C334.523 224.084 350.094 233.26 363.533 245.425C370.999 252.254 382.305 252.894 390.624 246.918C398.943 240.943 401.716 229.845 397.45 220.669C389.771 204.45 385.931 186.736 385.931 168.383C385.718 99.2373 442.459 42.6826 512 42.6826C581.541 42.6826 638.282 99.2373 638.282 168.81C638.282 187.163 634.443 204.663 626.763 221.095C622.497 230.273 625.27 241.37 633.589 247.346C641.695 253.321 653.214 252.681 660.68 245.852C674.119 233.473 689.691 224.51 706.97 218.961C773.097 197.407 844.558 233.687 866.102 299.631C876.555 331.643 873.782 365.789 858.423 395.881C843.065 425.972 817.04 448.167 785.043 458.41C767.338 464.173 749.419 465.88 731.714 463.533C721.475 462.039 711.876 468.228 708.677 478.044C705.477 487.862 709.53 498.319 718.489 503.44C734.487 512.404 747.926 524.568 758.805 539.294C778.643 566.611 786.536 599.69 781.416 632.982C776.083 666.274 758.165 695.512 730.861 715.359C674.545 755.908 595.406 743.317 554.449 687.189ZM860.343 1028.86C854.584 1025.66 847.544 1025.45 841.358 1028.22C835.172 1031 830.906 1036.33 829.413 1042.74L803.388 1153.5L619.511 777.462C665.16 787.706 715.076 779.17 755.819 749.505C764.778 742.889 773.097 735.634 780.563 727.524L953.774 1079.65L860.343 1028.86Z" fill="#D6EDFF"/>
<path d="M512 261.004C423.688 261.004 352.015 332.71 352.015 421.064C352.015 509.416 423.688 581.123 512 581.123C600.313 581.123 671.986 509.416 671.986 421.064C671.986 332.71 600.313 261.004 512 261.004ZM512 538.441C447.366 538.441 394.677 485.727 394.677 421.064C394.677 356.399 447.366 303.686 512 303.686C576.635 303.686 629.323 356.399 629.323 421.064C629.323 485.727 576.635 538.441 512 538.441Z" fill="#D6EDFF"/>
</svg>
