<svg width="145" height="145" viewBox="0 0 145 145" fill="none" xmlns="http://www.w3.org/2000/svg">
<g id="Frame" clip-path="url(#clip0_10_157)">
<g id="Group">
<path id="Vector" d="M68.7617 0.283249C64.8252 0.991257 61.002 2.7188 57.8867 5.21098C53.667 8.5811 50.5234 13.7354 49.5889 18.8047C49.1924 20.9854 49.1924 25.7432 49.5889 27.9239C50.2402 31.4639 52.251 35.542 54.8848 38.7139C57.4336 41.7442 62.5029 44.8594 66.8359 46.0489C69.668 46.8418 75.6152 46.7569 78.5322 45.9356C88.9541 42.962 95.7227 34.0694 95.7227 23.3643C95.7227 12.7159 88.9258 3.76665 78.6738 0.849655C76.3516 0.169968 70.9707 -0.141556 68.7617 0.283249ZM78.0225 5.0977C82.8652 6.59867 87.3115 10.337 89.4355 14.7266C91.0215 17.9268 91.4746 19.9092 91.4746 23.3643C91.4746 26.8194 91.0215 28.8018 89.4355 32.002C88.5293 33.8995 87.793 34.8907 85.9805 36.7032C81.959 40.6963 78.0508 42.3389 72.5 42.3389C66.9492 42.3389 63.041 40.6963 59.0195 36.7032C55.2529 32.9366 53.5254 28.7452 53.5254 23.3643C53.5254 19.9375 54.0068 17.9268 55.5361 14.7832C57.4619 10.8184 61.4551 7.13676 65.3633 5.6641C69.4697 4.10649 74.1426 3.87993 78.0225 5.0977Z" fill="#3A405A"/>
<path id="Vector_2" d="M66.1846 10.6484C66.0713 10.7617 65.9863 12.2344 65.9863 13.9336V16.9922H62.8711H59.7559V23.3643V29.7363H62.8711H65.958L66.043 32.9082L66.1279 36.1084H72.5H78.8721L78.957 32.9082L79.042 29.7363H82.1289H85.2441V23.3643V16.9922H82.1289H79.042L78.957 13.792L78.8721 10.6201L72.6133 10.5352C69.1865 10.5068 66.2979 10.5635 66.1846 10.6484ZM74.4824 18.125V21.2402H77.7393H80.9961V23.3643V25.4883H77.7393H74.4824V28.6035V31.7187H72.5H70.5176V28.6035V25.4883H67.2607H64.0039V23.3643V21.2402H67.2607H70.5176V18.125V15.0098H72.5H74.4824V18.125Z" fill="#3A405A"/>
<path id="Vector_3" d="M26.5928 43.5566C23.3076 44.6611 21.3818 46.6436 20.2207 50.042C19.7109 51.5996 19.4277 51.9678 18.3799 52.6475C16.0293 54.1484 14.1035 56.6689 13.1406 59.4727C12.6592 60.8887 12.6025 61.9648 12.6025 70.5176L12.6309 80.0049L13.3955 82.2705C14.3584 85.1309 15.9727 87.623 18.1533 89.6055L19.8525 91.1348L19.7676 93.0605L19.6826 95.0146L13.5088 96.3457C6.25879 97.9316 4.38965 98.6963 2.26562 101.019C0 103.511 0 103.397 0 118.86V132.256H20.3906H40.7812V138.628V145H72.5H104.219V138.628V132.256H106.768H109.316V130.132V128.008H106.796H104.275L104.162 121.692C104.077 115.575 104.049 115.349 103.341 113.819C102.35 111.724 100.707 110.138 98.3564 108.948C96.6006 108.07 92.2393 106.768 91.0215 106.768C90.2852 106.768 90.71 104.87 91.6729 103.879C93.0605 102.406 94.8447 101.755 101.047 100.424C104.332 99.7158 107.136 99.1211 107.277 99.1211C107.419 99.1211 109.373 101.358 111.582 104.105C114.867 108.184 115.688 109.005 115.972 108.693C116.227 108.41 123.137 99.8574 123.675 99.1494C123.816 98.9512 135.145 101.443 136.73 102.01C137.552 102.321 138.6 102.888 139.109 103.312C140.639 104.615 140.752 105.21 140.752 112.715V119.512H137.212H133.672V116.396V113.281H131.548H129.424V120.645V128.008H125.742H122.061V130.132V132.256H133.53H145V118.86C145 103.086 145.028 103.369 142.508 100.82C140.214 98.5547 138.571 97.875 131.463 96.3457L125.317 95.0146L125.232 93.0605L125.147 91.1348L126.847 89.6055C129.027 87.623 130.642 85.1309 131.633 82.2705L132.397 80.0049V70.5176C132.397 61.9932 132.341 60.8604 131.859 59.4727C130.727 56.1025 128.206 53.2705 124.949 51.7412L123.052 50.835L116.283 50.75C110.109 50.665 109.373 50.6934 107.589 51.2598C104.049 52.3359 101.132 55.1113 99.6309 58.8496C99.0078 60.4072 98.9795 60.8604 98.8945 69.498C98.7812 79.6934 98.9512 81.0244 100.707 84.6777C101.443 86.2354 102.265 87.3115 103.964 89.0107L106.229 91.2764L106.145 93.1455L106.06 94.9863L99.8291 96.3457C92.9756 97.8467 90.9365 98.6396 88.9258 100.565C87.7646 101.698 86.377 104.162 86.377 105.125C86.377 105.72 86.3486 105.72 84.3096 105.323L82.6953 104.983V102.803V100.622L85.0459 98.2432C87.5664 95.7227 89.0391 93.2871 89.9453 90.0586C90.54 88.0479 90.8516 72.8115 90.3701 68.9883C89.6621 63.2109 85.5557 58.4814 80.1182 57.2354C78.5039 56.8389 66.4961 56.8389 64.8818 57.2354C61.2285 58.0566 57.5752 61.002 55.9043 64.457C54.5166 67.374 54.29 69.7246 54.46 80.0049C54.6016 89.4072 54.6865 90.002 56.5273 93.7402C57.3203 95.3262 58.1699 96.459 59.9541 98.2432L62.3047 100.622V102.803V104.983L60.5771 105.323C59.6143 105.521 58.8213 105.635 58.793 105.578C58.7646 105.521 58.5664 104.983 58.3965 104.36C57.8584 102.491 56.4424 100.65 54.6299 99.4326C52.5059 98.0166 51.5146 97.6768 44.6045 96.2041L38.9404 94.9863L38.8555 93.1738L38.7705 91.333L41.0645 89.0107C43.6416 86.377 45.0293 83.8848 45.7373 80.5713C46.332 77.7109 46.332 62.5596 45.7373 60.2373C44.8594 56.8672 42.5088 53.6953 39.8467 52.251C39.252 51.9395 38.7988 51.4863 38.7988 51.2031C38.7988 50.9482 38.5439 50.0137 38.2324 49.1641C36.5332 44.6611 31.124 42.0557 26.5928 43.5566ZM32.2568 48.2295C32.8232 48.626 33.5029 49.334 33.7861 49.8154L34.2959 50.6934H29.4814C24.1006 50.6934 23.959 50.6367 25.5732 49.0508C27.5273 47.1533 30.1611 46.8418 32.2568 48.2295ZM36.9863 55.6211C40.1016 57.0654 41.6875 59.6426 41.8574 63.4941L41.9707 65.9863L29.4248 65.9297L16.8506 65.8447L16.9072 63.5225C16.9639 60.1807 18.0117 58.085 20.5039 56.2725C22.1465 55.1113 23.1094 54.9697 29.4531 54.9697C35.2588 54.9414 35.5986 54.9697 36.9863 55.6211ZM122.712 55.3945C124.553 56.0176 126.648 57.9717 127.441 59.7842C127.895 60.8604 128.064 61.8799 128.093 63.5508L128.149 65.8447L115.575 65.9297L103.029 65.9863L103.143 63.4941C103.312 59.6426 104.898 57.0654 108.014 55.6211C109.401 54.9697 109.741 54.9414 115.434 54.9414C120.135 54.9414 121.664 55.0264 122.712 55.3945ZM80.2598 61.7666C83.8848 63.0977 85.9521 66.2129 86.292 70.7725L86.4619 73.3496H77.9092H69.3848V75.4736V77.5977L77.8242 77.6543L86.2354 77.7393L86.3203 81.4209C86.3486 83.46 86.292 85.7539 86.1787 86.5752L85.9521 88.0479L79.2402 85.3857L72.5 82.752L65.7881 85.3857L59.0479 88.0479L58.8213 86.5752C58.708 85.7539 58.6514 83.46 58.6797 81.4209L58.7646 77.7393L61.9648 77.6543L65.165 77.5693L65.0801 75.5303L64.9951 73.4912L61.7666 73.4062L58.5381 73.3213L58.7363 70.7441C58.9629 67.4307 59.8691 65.3066 61.7949 63.5791C64.2021 61.4268 65.165 61.2002 72.415 61.2002C78.0791 61.1719 78.8721 61.2285 80.2598 61.7666ZM41.9141 74.4824C41.9141 77.0312 41.8008 78.7305 41.6309 78.7305C41.4893 78.7305 38.7705 77.7676 35.627 76.5781C32.4551 75.417 29.6797 74.4258 29.4531 74.3975C29.2266 74.3975 26.3662 75.3604 23.1377 76.5781C19.8809 77.7959 17.1338 78.7021 17.0488 78.5889C16.9355 78.4756 16.8223 76.5781 16.7656 74.3125L16.6807 70.2344H29.2832H41.9141V74.4824ZM128.234 74.3125C128.178 76.5781 128.064 78.4756 127.979 78.5889C127.866 78.6738 125.176 77.7959 122.032 76.6064C118.86 75.417 116 74.4258 115.688 74.4258C115.377 74.4258 112.545 75.417 109.373 76.5781C106.201 77.7676 103.511 78.7305 103.341 78.7305C103.199 78.7305 103.086 76.9746 103.086 74.4824V70.2344H115.717H128.319L128.234 74.3125ZM36.6748 81.5059C37.9209 81.9873 39.3086 82.4971 39.7334 82.667L40.5264 82.9785L39.6768 84.2246C39.1953 84.9043 38.2324 85.9805 37.4961 86.6318C32.54 90.9932 25.1201 90.6533 20.3906 85.8389C18.9746 84.3662 18.125 83.0918 18.4648 82.8652C18.4932 82.8369 20.9854 81.9023 23.9307 80.7979L29.3115 78.8154L31.8604 79.75C33.2764 80.2598 35.4287 81.0527 36.6748 81.5059ZM122.4 81.3076C124.694 82.1572 126.592 82.9785 126.592 83.1768C126.592 83.6865 124.553 86.1504 123.392 87.0283C121.891 88.1611 119.54 89.1807 117.529 89.5488C113.14 90.3701 108.014 88.1328 105.323 84.2246C104.53 83.0918 104.502 82.9502 104.983 82.7803C105.267 82.667 107.787 81.7324 110.591 80.6846L115.688 78.7871L116.963 79.2969C117.671 79.5518 120.106 80.458 122.4 81.3076ZM78.4473 89.6338C81.4775 90.8232 84.083 91.9277 84.2246 92.041C84.791 92.6074 81.9873 95.8076 79.665 97.2236C75.4736 99.8291 69.4697 99.8291 65.3633 97.252C63.7773 96.2324 61.8516 94.4199 61.1152 93.2305C60.6055 92.3809 60.5488 92.1826 60.917 91.9561C61.71 91.4463 72.3584 87.2832 72.6416 87.3682C72.8115 87.4248 75.417 88.4443 78.4473 89.6338ZM27.2725 93.7969C29.3965 94.1084 32.5967 93.8535 34.0693 93.2871C34.4941 93.1455 34.5508 93.3154 34.5225 94.7598C34.5225 96.0625 34.2676 96.9688 33.4463 98.8379L32.3701 101.245L29.3965 101.33L26.4229 101.415L25.2617 98.7246C24.3555 96.7139 24.0723 95.6943 24.0723 94.5898C24.0723 93.3154 24.1289 93.1455 24.5537 93.3154C24.8369 93.4004 26.0547 93.627 27.2725 93.7969ZM113.451 93.7969C115.405 94.1084 119.002 93.8535 120.446 93.3154C120.871 93.1455 120.928 93.2871 120.928 94.4482C120.928 95.7227 120.786 95.9775 118.351 99.0078C116.935 100.792 115.745 102.236 115.66 102.236C115.604 102.236 114.414 100.82 112.998 99.0928C110.534 96.0908 110.449 95.9209 110.449 94.5332C110.449 93.3154 110.506 93.1455 110.931 93.2871C111.186 93.4004 112.318 93.627 113.451 93.7969ZM22.2314 102.378L23.6191 105.635H29.3398H35.0322L36.4199 102.491C37.1562 100.764 37.8643 99.3193 37.9492 99.2627C38.3457 99.0078 50.042 101.755 51.2314 102.378C52.959 103.256 54.0635 104.474 54.2617 105.691L54.4316 106.683L52.6475 107.022C46.8701 108.127 43.3018 110.308 41.6592 113.819C40.9512 115.349 40.9229 115.575 40.8379 121.692L40.7246 128.008H28.1504H15.5762V120.645V113.281H13.4521H11.3281V116.396V119.512H7.78809H4.24805V112.715C4.24805 105.437 4.36133 104.672 5.69238 103.454C6.88184 102.35 8.94922 101.67 14.6699 100.396C17.7285 99.7158 20.3906 99.1494 20.5322 99.1494C20.7021 99.1211 21.4668 100.594 22.2314 102.378ZM72.5 103.397C73.9727 103.397 75.8701 103.228 76.6631 103.001C77.4844 102.774 78.2207 102.661 78.3057 102.746C78.3906 102.831 78.4473 103.539 78.4473 104.304C78.4473 105.663 78.3623 105.833 75.5586 109.345C73.9443 111.327 72.585 112.97 72.5 112.97C72.415 112.97 71.0557 111.327 69.4697 109.345C66.6377 105.833 66.5527 105.663 66.5527 104.304C66.5527 103.539 66.6094 102.831 66.6943 102.746C66.7793 102.661 67.5156 102.774 68.3369 103.001C69.1299 103.228 71.0273 103.397 72.5 103.397ZM67.0625 113.055L70.2344 117.048V128.886V140.752H63.7207H57.207V133.672V126.592H55.083H52.959V129.424V132.256H48.9941H45.0293V124.666C45.0293 120.503 45.1709 116.651 45.3125 116.085C45.6807 114.782 47.0967 113.338 48.8525 112.545C50.0703 111.979 62.1631 109.118 63.4375 109.09C63.6641 109.062 65.3066 110.874 67.0625 113.055ZM88.0762 110.449C91.7012 111.242 95.2412 112.12 95.9775 112.46C97.6768 113.196 99.3477 114.839 99.6875 116.113C99.8291 116.651 99.9707 120.503 99.9707 124.666V132.256H96.0059H92.041V129.424V126.592H89.917H87.793V133.672V140.752H81.2793H74.7656V128.886V117.02L77.9658 113.055C79.6934 110.846 81.2227 109.062 81.3359 109.062C81.4209 109.033 84.4795 109.685 88.0762 110.449ZM11.3281 125.884V128.008H7.78809H4.24805V125.884V123.76H7.78809H11.3281V125.884ZM140.752 125.884V128.008H137.212H133.672V125.884V123.76H137.212H140.752V125.884ZM52.959 138.628V140.752H48.9941H45.0293V138.628V136.504H48.9941H52.959V138.628ZM99.9707 138.628V140.752H96.0059H92.041V138.628V136.504H96.0059H99.9707V138.628Z" fill="#3A405A"/>
<path id="Vector_4" d="M82.8369 113.961C82.6104 114.556 82.1289 116.821 82.1289 117.303C82.1289 117.643 82.6104 117.869 84.0264 118.209C85.0742 118.436 85.9805 118.577 86.0371 118.52C86.207 118.351 87 114.669 86.8867 114.556C86.8301 114.471 85.8955 114.244 84.8477 114.018C83.4316 113.734 82.8936 113.706 82.8369 113.961Z" fill="#3A405A"/>
<path id="Vector_5" d="M91.0498 115.887C90.9365 116.255 90.3418 119.172 90.3418 119.37C90.3418 119.512 92.0127 119.965 93.4854 120.22L94.4766 120.418L94.8164 118.577C95.0146 117.586 95.1562 116.623 95.1562 116.481C95.1562 116.312 94.4199 116.057 93.542 115.858C91.5312 115.462 91.1914 115.462 91.0498 115.887Z" fill="#3A405A"/>
<path id="Vector_6" d="M113.564 130.132V132.256H115.688H117.812V130.132V128.008H115.688H113.564V130.132Z" fill="#3A405A"/>
</g>
</g>
<defs>
<clipPath id="clip0_10_157">
<rect width="145" height="145" fill="white"/>
</clipPath>
</defs>
</svg>
