<svg width="167" height="167" viewBox="0 0 167 167" fill="none" xmlns="http://www.w3.org/2000/svg">
<g id="Frame">
<g id="group">
<path id="Path 22" d="M29.323 31.7391C26.3471 32.4034 23.5753 33.7754 21.2426 35.739C18.9099 37.7027 17.0852 40.1999 15.9231 43.0189C15.0482 45.0392 14.981 45.5438 14.981 49.9167C14.7085 52.6912 15.125 55.4902 16.1936 58.0652C18.4499 64.4294 22.2872 69.8151 26.2952 72.2058C28.713 73.6711 31.5202 74.3639 34.3421 74.1916C42.5233 73.2495 50.4703 62.4744 51.3779 51.0948C51.6567 47.0602 50.606 43.0454 48.3867 39.6646C46.1673 36.2838 42.9015 33.7232 39.0889 32.3745C35.9383 31.3474 32.5801 31.1289 29.323 31.7391ZM38.381 37.6985C41.1714 39.01 43.4457 41.2134 44.8449 43.961C45.9232 46.1156 45.9559 46.3516 45.9232 50.0891C46.12 52.4239 45.7385 54.7712 44.8123 56.9234C42.8591 62.1077 39.4247 66.5187 35.9903 68.2704C31.7482 70.4595 26.4278 67.2266 22.7574 60.189C20.9733 56.9995 20.0359 53.4061 20.0346 49.7515C19.8336 47.869 20.2096 45.9698 21.1128 44.3059C21.9143 42.5779 23.0728 41.0393 24.5121 39.7915C25.9513 38.5438 27.6386 37.6151 29.4628 37.0668C32.4341 36.403 35.5328 36.6226 38.381 37.6985Z" fill="#3A405A"/>
<path id="Path 23" d="M131.647 31.4686C127.565 32.0824 123.788 33.9915 120.874 36.9143C115.016 42.8736 114.005 51.0548 118.011 60.5502C119.987 65.7754 123.726 70.146 128.583 72.9064C130.21 73.8911 132.11 74.3277 134.003 74.1517C135.82 74.3272 137.646 73.9264 139.222 73.0062C144.036 70.6465 148.312 65.1282 150.805 58.0579C151.83 55.5913 152.246 52.914 152.017 50.2525C152.017 45.1699 151.513 43.1477 149.425 39.9493C147.044 36.2046 143.402 33.4358 139.156 32.1439C136.705 31.5236 134.17 31.2957 131.647 31.4686ZM139.452 37.8655C142.286 39.1856 144.564 41.4611 145.888 44.293C147.211 47.1248 147.496 50.3323 146.691 53.3529C145.756 57.955 143.566 62.2084 140.362 65.6419C136.221 69.8841 132.28 70.0529 128.006 66.1465C125.444 63.5095 123.46 60.3678 122.18 56.9216C121.254 54.7694 120.873 52.4221 121.07 50.0873C121.035 46.5858 121.137 46.0467 121.912 44.3295C123.025 41.9944 124.776 40.0216 126.962 38.6388C129.101 37.117 131.725 36.4342 134.335 36.7201C136.113 36.6514 137.878 37.0461 139.458 37.8655H139.452Z" fill="#3A405A"/>
<path id="Path 24" d="M77.8765 50.2234C73.7066 51.5872 70.1559 54.3862 67.8561 58.1223C65.5563 61.8584 64.6565 66.2892 65.317 70.6264C66.5295 79.1779 72.0514 87.9327 78.0108 90.8951C79.6785 91.8308 81.5979 92.2194 83.4982 92.006C85.4189 92.2455 87.3643 91.8305 89.0201 90.828C93.667 88.5045 97.9764 82.9154 100.198 76.4514C102.723 69.009 102.32 63.0515 99.0201 57.8655C97.2833 55.4253 95.1013 53.335 92.5888 51.7046C88.0728 49.2871 82.7837 48.7546 77.8765 50.2234ZM88.314 55.4766C91.3535 56.8113 93.8393 59.1541 95.3516 62.1094C97.4046 66.3189 96.8999 71.8735 93.8994 77.9345C92.2667 81.1633 89.8747 83.9477 86.9289 86.0485C85.8878 86.6604 84.7022 86.983 83.4946 86.983C82.287 86.983 81.1013 86.6604 80.0602 86.0485C74.6726 82.8828 70.0275 73.6923 70.4395 66.9252C70.5648 64.8601 71.176 62.8537 72.2234 61.0695C73.2708 59.2852 74.7247 57.7736 76.4669 56.6575C78.209 55.5415 80.19 54.8528 82.2487 54.6472C84.3074 54.4417 86.3856 54.7252 88.314 55.4748V55.4766Z" fill="#3A405A"/>
<path id="Path 25" d="M14.411 75.5076C11.0686 76.3476 8.01388 78.0718 5.56737 80.4991C3.12086 82.9264 1.37275 85.9675 0.506446 89.3032C0.101653 90.9187 0.0018158 93.7814 0.0018158 104.353V117.423H45.1172V112.373H5.01726L5.11891 101.663C5.22056 91.4615 5.28773 90.8897 6.02652 89.0364C6.80219 87.1346 7.9756 85.4207 9.46803 84.0097C10.9605 82.5986 12.7374 81.5231 14.6797 80.8552C16.2155 80.4816 17.7816 80.2453 19.3593 80.1491L22.4234 79.9476L26.5639 87.9345C27.9765 90.951 29.6555 93.8354 31.5812 96.5532C31.8597 96.7852 32.1822 96.9584 32.5294 97.0626C32.8766 97.1668 33.2413 97.1997 33.6015 97.1595C34.7469 97.0578 34.7796 96.958 39.1905 88.6407L43.6015 80.2235L45.5547 80.1219C48.3918 79.918 51.2266 80.5483 53.7101 81.9352C56.1935 83.322 58.2172 85.4049 59.5319 87.9273L60.2725 89.443L62.5288 88.6679C63.3836 88.4642 64.187 88.086 64.8886 87.5569C65.1917 86.6493 62.7666 82.8102 60.4776 80.5194C56.2354 76.2772 52.3291 74.9303 44.9557 75.0737L40.3087 75.1754L36.74 81.977C34.7868 85.7472 33.1096 88.8113 33.0025 88.8113C32.8954 88.8113 31.2508 85.7145 29.2994 81.9135L25.7579 75.0029L21.0384 75.0374C18.8197 74.9967 16.6017 75.154 14.411 75.5076Z" fill="#3A405A"/>
<path id="Path 26" d="M115.148 75.5475C112.645 76.2187 110.3 77.3796 108.248 78.963C106.196 80.5465 104.479 82.521 103.195 84.7724C102.685 85.6303 102.311 86.5616 102.084 87.5334C102.794 88.0758 103.608 88.4657 104.475 88.6788L106.697 89.4194L107.437 87.871C108.86 85.3044 110.955 83.1745 113.498 81.7102C116.011 80.533 118.774 79.9895 121.545 80.1273L123.397 80.2289L127.639 88.2758C131.242 95.1736 132.015 96.4243 132.925 96.8618C135.079 97.871 135.348 97.5697 140.164 88.343L144.54 79.9585L147.773 80.16C154.308 80.5303 158.719 83.5266 161.006 89.1489C161.712 90.9333 161.747 91.4379 161.781 101.607V112.213L141.848 112.315L121.881 112.382V117.432H166.998V104.362C166.998 89.9513 166.897 89.178 164.876 85.1028C163.01 81.7093 160.204 78.9265 156.795 77.0886C153.371 75.442 149.575 74.7223 145.786 75.0011H141.248L137.98 81.3308C136.196 84.7978 134.513 87.8964 134.277 88.2286C133.872 88.7732 133.435 88.0943 130.236 82.0006L126.668 75.1663L121.854 75.0992C119.609 74.9813 117.358 75.1318 115.148 75.5475Z" fill="#3A405A"/>
<path id="Path 27" d="M66.2627 93.2187C63.4192 93.7032 60.7232 94.8279 58.3784 96.5078C56.0336 98.1878 54.1016 100.379 52.7284 102.916C50.5738 107.023 50.5066 107.662 50.5066 122.376V135.609L83.6035 135.542L116.668 135.441L116.769 124.33C116.871 112.376 116.6 108.572 115.524 105.441C113.799 101.019 110.584 97.3394 106.433 95.0375C103.504 93.5563 101.384 93.1515 96.0976 92.95L91.015 92.7485L87.3446 99.719C85.3588 103.531 83.6071 106.655 83.5054 106.655C83.4038 106.655 81.6902 103.591 79.7352 99.8206L76.1665 93.019L72.1603 92.9845C70.1915 92.9367 68.2216 93.015 66.2627 93.2187ZM77.2393 106.315C79.5628 110.759 81.4815 114.531 81.4815 114.733C81.4815 114.934 82.3564 115.068 83.4673 115.068C85.1845 115.068 85.5203 114.967 85.6891 114.395C85.8235 113.99 87.7422 110.186 89.9658 105.943L94.0392 98.1651L97.6079 98.2995C99.5952 98.1571 101.584 98.5527 103.366 99.4449C105.839 100.534 107.919 102.355 109.325 104.664C111.244 107.897 111.447 109.383 111.447 120.354V130.22H55.5566V120.354C55.5566 109.378 55.758 107.897 57.6785 104.664C59.4547 101.781 62.2353 99.6582 65.484 98.7042C66.9438 98.3904 68.4346 98.2436 69.9276 98.2668L72.9917 98.2323L77.2393 106.315Z" fill="#3A405A"/>
</g>
</g>
</svg>
