<svg width="152" height="118" viewBox="0 0 152 118" fill="none" xmlns="http://www.w3.org/2000/svg">
<path id="Vector" d="M71.8406 0.0968475C67.5866 0.375168 62.1823 1.28964 59.0352 2.26376C58.7313 2.34328 58.1019 2.54208 57.6244 2.66136C57.1469 2.80052 56.5609 2.97944 56.3221 3.07884C52.9363 4.35116 49.5722 5.80239 47.8792 6.73675C47.1847 7.13435 46.577 7.45243 46.5336 7.45243C46.4251 7.45243 42.8873 9.67898 42.7571 9.83802C42.692 9.89766 42.2145 10.2356 41.6719 10.5736C39.6534 11.8459 33.2073 17.5514 33.2073 18.0882C33.2073 18.1478 32.86 18.5256 32.4476 18.9232C32.0353 19.3208 31.688 19.7184 31.688 19.7979C31.688 19.8774 31.5578 20.0762 31.4275 20.2154C31.0803 20.5334 29.2354 23.0979 28.606 24.1118C27.5425 25.8215 26.0015 28.8035 25.0031 31.1096C23.5055 34.5687 23.1366 35.2844 22.9629 35.2844C22.8544 35.2844 22.7893 35.3838 22.7893 35.503C22.7893 35.7615 20.6406 38.6242 19.7724 39.5188C16.0827 43.3556 11.6117 45.602 5.86011 46.4966C3.47266 46.8744 3.12539 46.9936 1.90996 47.9876C0.173633 49.419 0 49.9756 0 54.4486C0 58.7626 0.108521 59.18 1.45417 60.5518C1.88826 60.9891 2.71301 61.5656 3.29902 61.844C4.62297 62.4602 6.68486 62.4801 9.81025 61.9235C11.0474 61.7048 12.176 61.5259 12.3062 61.5259C12.5233 61.5259 12.5884 67.1519 12.6318 87.6283L12.6969 113.711L13.1961 114.506C13.8038 115.46 14.7805 116.295 15.8223 116.752C16.5602 117.07 20.3584 117.09 75.7473 117.09C132.547 117.09 134.934 117.07 135.716 116.732C136.736 116.275 137.843 115.321 138.385 114.407C138.776 113.731 138.798 112.757 138.863 87.6084C138.906 65.3627 138.95 61.5259 139.21 61.5259C139.384 61.5259 140.512 61.7048 141.728 61.9235C144.81 62.4801 146.872 62.4602 148.196 61.844C149.498 61.2476 150.475 60.3331 151.061 59.2198C151.451 58.4246 151.495 57.9674 151.495 54.389C151.495 49.8564 151.386 49.4588 149.541 47.9678C148.369 46.9936 148.044 46.8744 145.309 46.4171C138.993 45.3635 134.262 42.6996 130.463 38.0675C128.619 35.8012 128.054 34.8271 126.513 31.209C126.014 29.9963 125.059 28.0282 124.408 26.8354C123.757 25.6227 123.106 24.4498 122.975 24.2112C122.845 23.9528 122.672 23.754 122.585 23.754C122.476 23.754 122.411 23.6546 122.411 23.5353C122.411 23.2769 119.264 19.0424 118.743 18.5852C118.548 18.4262 118.092 17.9292 117.745 17.4918C116.985 16.5574 113.143 13.0188 111.798 12.0248C111.277 11.6471 110.756 11.2296 110.604 11.1302C110.474 11.0109 110.018 10.6929 109.606 10.4344C109.193 10.176 108.803 9.89766 108.738 9.83802C108.586 9.63922 105.113 7.45243 104.983 7.45243C104.918 7.45243 104.245 7.11447 103.507 6.69699C102.747 6.27951 101.684 5.76263 101.141 5.52407C98.146 4.19212 95.8887 3.27764 95.65 3.27764C95.498 3.27764 95.281 3.19812 95.1725 3.1186C95.0423 3.0192 94.5214 2.84028 93.9788 2.70112C93.4362 2.56196 92.8067 2.36316 92.568 2.28364C91.9386 2.06496 89.3341 1.4288 88.0101 1.19025C82.6709 0.196243 76.6589 -0.201355 71.8406 0.0968475ZM79.0246 5.06683C83.0833 5.36504 86.3823 5.92167 90.8317 7.05482C92.2858 7.41267 95.3027 8.50607 97.408 9.44042C106.98 13.655 114.663 20.3545 119.112 28.386C120.393 30.6722 120.545 31.0102 121.76 33.8928C123.323 37.5705 125.515 40.7712 128.358 43.5743C129.812 45.0056 132.569 47.093 134.131 47.9678C137.235 49.6774 141.359 50.9895 145.049 51.4666L146.069 51.6058V54.389C146.069 57.6493 146.155 57.53 143.703 57.1722C140.491 56.6951 136.909 55.7408 134.739 54.7667C134.24 54.548 133.762 54.3691 133.676 54.3691C133.024 54.3691 128.228 51.4269 125.927 49.6178C122.628 47.0334 118.244 41.4471 116.681 37.8687C116.464 37.3717 116.16 36.6958 116.008 36.3777C115.856 36.0398 115.509 35.2446 115.227 34.5886C112.536 28.0679 107.197 21.9847 100.533 17.8298C95.9321 14.9472 89.4426 12.4423 84.429 11.6073C78.2433 10.5736 73.1645 10.5935 67.0657 11.6073C60.7064 12.6809 53.6308 15.6827 48.4001 19.5196C45.0577 21.9847 41.0208 26.1197 39.5015 28.6246C39.241 29.0619 38.9372 29.5192 38.8286 29.6385C38.4597 30.0559 36.7668 33.3958 36.0505 35.0856C34.4661 38.823 32.3825 42.3616 30.0385 45.2243C28.6494 46.8942 24.8512 50.2341 22.7893 51.5859C18.4485 54.4287 14.2162 56.0589 8.57312 57.0529C7.61814 57.2119 6.51123 57.3511 6.14226 57.3511H5.42603V54.4884V51.6058L6.46782 51.4666C17.4501 50.0552 25.9581 43.3556 30.1687 32.7994C31.4058 29.718 34.618 24.41 36.5931 22.1636C46.1646 11.3489 59.4909 5.38491 75.2264 4.88792C75.7039 4.88792 77.4185 4.96743 79.0246 5.06683ZM79.3285 16.0008C81.4772 16.2195 83.474 16.5177 84.646 16.796C86.1219 17.1538 88.6613 17.8298 89.1605 18.0087C89.4209 18.1081 89.855 18.2671 90.1371 18.3665C93.0672 19.4202 97.4297 21.7461 99.9474 23.6148C102.4 25.4239 105.894 29.0619 107.37 31.3084C108.412 32.8988 109.367 34.7476 110.452 37.2127C113.361 43.8725 116.594 48.3852 121.565 52.6793C125.081 55.7011 128.011 57.4903 133.003 59.5975L133.48 59.7963L133.437 85.9583L133.372 112.12H118.83H104.288L104.18 92.4392C104.115 81.6046 103.984 72.5791 103.876 72.3605C103.225 70.9291 102.986 70.5713 102.378 70.0345C101.988 69.6965 101.206 69.2194 100.599 68.961L99.5133 68.4839H75.7473H51.9813L50.8961 68.961C49.5071 69.5574 48.5521 70.4122 47.9227 71.605L47.4235 72.5593L47.3149 92.3398L47.2064 112.12H32.6647H18.1229L18.0578 85.9186L18.0144 59.7367L18.6004 59.518C20.1197 59.021 24.7861 56.6354 25.5674 55.9595C25.7845 55.7806 26.0666 55.5818 26.1969 55.542C27.1735 55.2041 31.7531 51.1684 33.8801 48.763C35.4428 46.9738 37.114 44.787 37.114 44.5086C37.114 44.449 37.3094 44.1508 37.5264 43.8526C38.0039 43.2363 40.1743 39.2603 40.5867 38.2663C40.7386 37.8886 41.0425 37.1928 41.2595 36.7356C41.4982 36.2585 41.6719 35.8012 41.6719 35.7018C41.6719 35.2247 44.9709 29.8372 45.5786 29.3204C45.6437 29.2607 46.0344 28.8234 46.4468 28.3264C48.4653 25.901 51.2434 23.6546 54.8029 21.5274C57.3639 19.9768 58.6228 19.3804 61.4226 18.3466C61.7265 18.2274 62.1388 18.0683 62.3342 17.9689C62.5512 17.8695 62.8768 17.79 63.0504 17.79C63.224 17.79 63.5496 17.7105 63.7667 17.6111C64.2876 17.3526 67.3261 16.6568 69.019 16.3984C73.2513 15.7821 76.0729 15.6628 79.3285 16.0008ZM94.8469 73.6129C94.8469 73.7123 94.6733 73.9508 94.4563 74.1695C94.0439 74.5671 88.7915 79.0799 88.1187 79.6166C87.6195 80.0142 82.6058 84.2884 80.3052 86.2963C77.7224 88.5228 76.4853 89.5566 76.3333 89.5566C76.138 89.5566 74.3583 88.1252 71.298 85.4812C69.757 84.1493 67.847 82.539 67.0874 81.8829C66.306 81.2468 65.3945 80.4317 65.0255 80.1136C64.6565 79.7757 63.0287 78.404 61.4226 77.0521C58.2755 74.4081 57.7329 73.9111 57.7329 73.6328C57.7329 73.5334 65.6115 73.4538 76.2899 73.4538C86.4908 73.4538 94.8469 73.5334 94.8469 73.6129ZM57.0818 80.213C58.6879 81.5847 60.7498 83.3342 61.6396 84.1095C62.5295 84.8848 63.9403 86.0975 64.7867 86.7933C66.3711 88.1252 68.1075 89.6162 70.6469 91.8229L72.1661 93.135L70.7554 94.3676C69.1276 95.8188 63.5496 100.61 62.9202 101.107C62.6814 101.286 61.1622 102.598 59.5344 104.009C57.9065 105.401 56.3873 106.713 56.1268 106.912C55.8881 107.111 55.1067 107.767 54.4339 108.363C53.7611 108.959 53.1533 109.377 53.0882 109.278C52.9363 109.039 52.8929 77.2708 53.0665 77.0322C53.1316 76.9328 53.4138 77.0521 53.6742 77.2907C53.9347 77.5292 55.4757 78.8413 57.0818 80.213ZM98.5366 89.497C98.5583 95.9381 98.5583 102.777 98.58 104.725C98.58 106.673 98.5366 108.303 98.4715 108.383C98.363 108.482 95.0857 105.898 93.7617 104.665C93.5881 104.506 91.9169 103.075 90.072 101.485C88.2272 99.9141 85.8614 97.9062 84.8413 97.0315C83.8212 96.1369 82.4322 94.9441 81.7594 94.3676C81.0865 93.7712 80.5222 93.2344 80.5222 93.135C80.5222 93.0555 81.8245 91.8627 83.3872 90.5307C84.9716 89.1789 87.0117 87.4295 87.9016 86.674C88.7915 85.8987 90.1588 84.7258 90.9402 84.0697C91.7215 83.3938 93.6749 81.7239 95.281 80.3522C96.8871 78.9606 98.2762 77.8274 98.3847 77.8274C98.4715 77.8274 98.5366 83.0757 98.5366 89.497ZM77.9177 97.9658C78.6991 98.6417 79.9796 99.7351 80.7393 100.371C82.4322 101.783 87.3373 105.977 89.7465 108.065C90.7014 108.88 92.0905 110.073 92.8284 110.709C93.5664 111.365 94.1307 111.961 94.0656 112.041C93.9137 112.279 58.6662 112.279 58.5143 112.041C58.4274 111.902 62.5078 108.204 64.548 106.554C64.6999 106.435 65.4813 105.779 66.306 105.063C67.1525 104.347 69.1927 102.598 70.8639 101.186C72.5351 99.755 74.4017 98.1646 74.9877 97.6477C75.5954 97.1507 76.1814 96.7134 76.2899 96.7134C76.4201 96.7134 77.1364 97.27 77.9177 97.9658Z" fill="#3A405A"/>
</svg>
