<svg width="84" height="60" viewBox="0 0 84 60" fill="none" xmlns="http://www.w3.org/2000/svg">
<path d="M8 0C3.60259 0 0 3.60258 0 8V52C0 56.3974 3.60259 60 8 60H76C80.3974 60 84 56.3974 84 52V8C84 3.60258 80.3974 0 76 0H8ZM8 4H76C76.5627 4 77.082 4.11333 77.5625 4.3125L44.875 32.7187C43.0547 34.2994 40.8797 34.2995 39.0625 32.7187L6.4375 4.3125C6.918 4.11333 7.43735 4 8 4ZM4.0625 7.5625L36.4375 35.7187C39.6214 38.4885 44.3154 38.4841 47.5 35.7187L79.9375 7.5625C79.9531 7.7095 80 7.84804 80 8V52C80 54.2506 78.2506 56 76 56H8C5.7494 56 4 54.2506 4 52V8C4 7.84804 4.0469 7.7095 4.0625 7.5625Z" fill="black"/>
</svg>
