<svg width="129" height="119" viewBox="0 0 129 119" fill="none" xmlns="http://www.w3.org/2000/svg">
<g id="Group">
<g id="Group_2">
<path id="Vector" d="M50.2743 1.69239C51.405 1.26839 52.5356 0.844383 53.949 0.561714C61.8637 -1.5583 73.3118 2.11639 79.5305 15.1192L81.2265 19.6419C85.0426 32.9273 81.3679 52.4315 60.4504 82.9597C24.5514 73.6316 8.86329 61.3355 2.92724 48.8981L1.23123 44.3754C-2.72614 30.5246 3.49258 20.2072 10.842 16.5325C12.114 15.9672 13.2447 15.4018 14.3753 14.9778C23.2794 11.5858 28.9328 13.8472 35.9995 17.8045C38.5435 10.3138 41.3702 4.94308 50.2743 1.69239ZM53.525 10.1725C48.4369 12.1511 46.8823 14.4125 44.6209 21.0552L40.9462 31.3726L31.4768 26.0019C25.3994 22.6099 22.7141 21.7619 17.626 23.7406C16.778 24.0232 15.93 24.4472 14.9407 24.8712C11.5486 26.5673 7.44995 32.362 9.99397 41.69L11.4073 45.3647C16.6367 56.2475 31.7595 65.2929 56.3517 72.3596C70.2025 50.8768 75.5732 34.058 72.4638 22.4686L71.0505 18.7939C66.8104 10.1725 59.885 8.47645 56.2103 9.46579C55.221 9.60712 54.373 9.88979 53.525 10.1725Z" fill="#3A405A"/>
</g>
<g id="Group_3">
<path id="Vector_2" d="M120.659 78.4371C121.366 78.8611 122.072 79.2851 122.92 79.8504C127.584 83.2425 130.411 91.1572 126.03 100.203L124.334 103.029C118.68 110.803 106.384 117.304 80.6612 119C70.2025 95.3972 70.0611 81.5464 74.4425 72.925L76.1385 70.0983C81.9332 61.9009 90.4133 60.9116 95.5013 63.3143C96.3493 63.7383 97.056 64.1623 97.7627 64.5863C103.416 67.9783 104.688 72.077 105.536 77.5891C110.907 75.8931 115.005 75.045 120.659 78.4371ZM117.408 83.9491C114.157 81.9704 112.179 82.1118 107.656 83.8078L100.448 86.2105L99.3174 78.7197C98.6107 73.9144 97.7627 72.077 94.512 70.0983C93.9466 69.8157 93.3813 69.3917 92.6746 69.109C90.2719 67.9783 85.3252 68.261 81.3679 73.6317L79.9545 76.0344C76.2798 83.6665 77.8345 95.8212 84.6186 112.357C102.427 110.661 113.875 106.28 118.963 99.4959L120.376 97.0932C123.344 91.0158 121.224 86.4931 119.104 84.9385C118.539 84.6558 117.973 84.2318 117.408 83.9491Z" fill="#3A405A"/>
</g>
</g>
</svg>
