<svg width="1173" height="1088" viewBox="0 0 1173 1088" fill="none" xmlns="http://www.w3.org/2000/svg">
<path d="M459.873 15.4733C470.216 11.5967 480.558 7.72007 493.487 5.13566C565.885 -14.2473 670.604 19.3498 727.488 138.233L743.002 179.583C777.909 301.05 744.295 479.374 552.957 758.489C224.579 673.203 81.0751 560.782 26.7763 447.068L11.2624 405.718C-24.9368 279.082 31.9476 184.752 99.1749 151.154C110.81 145.986 121.153 140.816 131.495 136.94C212.943 105.927 264.657 126.603 329.298 162.784C352.568 94.2976 378.425 45.1939 459.873 15.4733ZM489.609 93.0057C443.066 111.096 428.846 131.771 408.16 192.505L374.547 286.835L287.927 237.732C232.336 206.719 207.772 198.966 161.23 217.057C153.473 219.641 145.716 223.517 136.667 227.394C105.638 242.901 68.1468 295.881 91.4177 381.166L104.346 414.763C152.181 514.263 290.513 596.964 515.465 661.573C642.162 465.159 691.29 311.387 662.847 205.427L649.919 171.83C611.134 93.0057 547.785 77.499 514.172 86.5444C505.122 87.8365 497.365 90.4209 489.609 93.0057Z" fill="#D6EDFF"/>
<path d="M1103.7 717.139C1110.17 721.016 1116.63 724.892 1124.38 730.061C1167.05 761.074 1192.91 833.437 1152.83 916.142L1137.32 941.98C1085.6 1013.06 973.125 1072.49 737.831 1088C642.162 872.203 640.869 745.567 680.947 666.743L696.461 640.899C749.466 565.951 827.036 556.906 873.578 578.874C881.335 582.75 887.799 586.627 894.264 590.503C945.976 621.516 957.611 658.99 965.368 709.386C1014.5 693.88 1051.98 686.126 1103.7 717.139ZM1073.96 767.535C1044.23 749.444 1026.13 750.737 984.76 766.243L918.827 788.21L908.485 719.723C902.02 675.789 894.263 658.99 864.528 640.899C859.357 638.315 854.186 634.439 847.721 631.854C825.743 621.516 780.494 624.101 744.296 673.204L731.367 695.172C697.753 764.951 711.975 876.08 774.031 1027.26C936.929 1011.76 1041.65 971.703 1088.19 909.677L1101.11 887.709C1128.26 832.145 1108.87 790.794 1089.48 776.581C1084.31 773.996 1079.13 770.119 1073.96 767.535Z" fill="#D6EDFF"/>
</svg>
