<svg width="112" height="136" viewBox="0 0 112 136" fill="none" xmlns="http://www.w3.org/2000/svg">
<g id="Group">
<path id="Vector" d="M111.762 122.559L88.4305 75.1501C89.2238 73.5169 89.7837 71.7671 90.087 69.9239C90.857 65.071 89.6904 60.1948 86.7973 56.2051C86.494 55.7851 86.1674 55.3652 85.8174 54.9685C86.3307 54.8519 86.8206 54.7119 87.3339 54.5486C92.0235 53.032 95.8499 49.789 98.0897 45.3794C100.329 40.9931 100.726 36.0002 99.2096 31.2873C96.0598 21.6281 85.6074 16.3086 75.9249 19.4583C75.435 19.6216 74.945 19.8083 74.4551 19.9949C74.5017 19.4816 74.525 18.9683 74.525 18.4317C74.4784 8.28261 66.1958 0 56 0C45.8042 0 37.5216 8.28261 37.5216 18.4551C37.5216 18.9683 37.5449 19.505 37.5916 20.0183C37.125 19.8083 36.635 19.645 36.1217 19.4816C26.4392 16.3319 15.9868 21.6281 12.8138 31.3106C11.2972 36.0002 11.6939 40.9931 13.9337 45.3794C16.1735 49.7657 19.9998 53.032 24.6894 54.5486C25.1793 54.7119 25.6926 54.8519 26.2059 54.9685C25.856 55.3652 25.5293 55.7851 25.226 56.2051C22.3329 60.1948 21.143 65.071 21.913 69.9239C22.2163 71.7671 22.7762 73.5169 23.5695 75.1501L0.238194 122.559C-0.205101 123.469 -0.0184506 124.566 0.70482 125.266C1.42809 125.966 2.54799 126.129 3.43458 125.639L17.4334 118.033L21.073 133.525C21.3064 134.482 22.0996 135.205 23.0795 135.322C23.1729 135.322 23.2429 135.345 23.3362 135.345C24.2228 135.345 25.0394 134.855 25.436 134.038L50.8671 82.0562C52.4536 80.9363 53.9002 79.5597 55.1134 77.9032C55.4167 77.4832 55.72 77.04 56 76.5967C56.28 77.04 56.56 77.4832 56.8866 77.9265C58.0998 79.5831 59.5464 80.9829 61.1562 82.1028L86.564 134.015C86.9606 134.832 87.7772 135.322 88.6638 135.322C88.7571 135.322 88.8271 135.322 88.9205 135.298C89.9004 135.182 90.717 134.482 90.9269 133.502L94.5666 118.01L108.565 125.616C109.452 126.106 110.572 125.942 111.295 125.242C112.018 124.566 112.205 123.469 111.762 122.559ZM24.1294 126.082L21.283 113.973C21.1197 113.273 20.6297 112.667 19.9765 112.387C19.3232 112.084 18.5533 112.107 17.9 112.457L7.65755 118.01L26.6026 79.5131C27.4192 80.3997 28.3291 81.1929 29.309 81.9162C32.5754 84.296 36.3784 85.4392 40.1347 85.4392C41.5113 85.4392 42.8645 85.2759 44.1944 84.9726L24.1294 126.082ZM60.6429 75.1268C59.453 73.4936 58.6598 71.6738 58.2865 69.7139C58.0765 68.6174 57.1199 67.8241 56 67.8241C54.8801 67.8241 53.9235 68.6174 53.7135 69.7139C53.3402 71.6738 52.547 73.4936 51.3571 75.1268C46.8775 81.2862 38.2215 82.6395 32.0621 78.1832C29.0757 76.0134 27.1159 72.817 26.5326 69.1773C25.9493 65.5376 26.8359 61.8979 29.0057 58.9349C30.1722 57.325 31.6655 55.9951 33.4153 55.0152C34.3952 54.4786 34.8385 53.312 34.4885 52.2388C34.1619 51.2822 33.2753 50.6289 32.2721 50.6289C32.1787 50.6289 32.0854 50.6289 31.9688 50.6522C30.0323 50.8856 28.0724 50.6989 26.1359 50.0923C22.6362 48.9491 19.7898 46.5226 18.11 43.2562C16.4301 39.9665 16.1268 36.2335 17.27 32.7338C19.6265 25.5011 27.4425 21.5581 34.6985 23.8912C36.5884 24.4979 38.2915 25.5011 39.7614 26.831C40.578 27.5776 41.8146 27.6476 42.7245 26.9943C43.6344 26.341 43.9377 25.1278 43.4711 24.1246C42.6312 22.3514 42.2112 20.4149 42.2112 18.4084C42.1879 10.8491 48.394 4.66626 56 4.66626C63.606 4.66626 69.8121 10.8491 69.8121 18.4551C69.8121 20.4615 69.3922 22.3747 68.5522 24.1712C68.0856 25.1745 68.3889 26.3877 69.2988 27.041C70.1854 27.6943 71.4453 27.6243 72.2619 26.8777C73.7318 25.5244 75.435 24.5445 77.3248 23.9379C84.5575 21.5815 92.3735 25.5478 94.7299 32.7571C95.8732 36.2568 95.5699 39.9898 93.89 43.2796C92.2102 46.5693 89.3637 48.9957 85.8641 50.1156C83.9276 50.7456 81.9677 50.9322 80.0312 50.6756C78.9113 50.5123 77.8614 51.1889 77.5115 52.2621C77.1615 53.3354 77.6048 54.4786 78.5847 55.0385C80.3345 56.0184 81.8044 57.3483 82.9943 58.9582C85.1641 61.9446 86.0274 65.561 85.4674 69.2006C84.8841 72.8403 82.9243 76.0367 79.9379 78.2065C73.7784 82.6395 65.1225 81.2629 60.6429 75.1268ZM94.1 112.48C93.4701 112.13 92.7001 112.107 92.0235 112.41C91.3469 112.714 90.8803 113.297 90.717 113.997L87.8706 126.106L67.759 84.9959C72.7519 86.1158 78.2114 85.1826 82.6677 81.9395C83.6476 81.2162 84.5575 80.423 85.3741 79.5364L104.319 118.033L94.1 112.48Z" fill="#3A405A"/>
<path id="Vector_2" d="M56 28.5342C46.3409 28.5342 38.5016 36.3735 38.5016 46.0327C38.5016 55.6918 46.3409 63.5311 56 63.5311C65.6592 63.5311 73.4985 55.6918 73.4985 46.0327C73.4985 36.3735 65.6592 28.5342 56 28.5342ZM56 58.8649C48.9306 58.8649 43.1678 53.102 43.1678 46.0327C43.1678 38.9633 48.9306 33.2004 56 33.2004C63.0694 33.2004 68.8322 38.9633 68.8322 46.0327C68.8322 53.102 63.0694 58.8649 56 58.8649Z" fill="#3A405A"/>
</g>
</svg>
