<svg width="83" height="138" viewBox="0 0 83 138" fill="none" xmlns="http://www.w3.org/2000/svg">
<g id="a" clip-path="url(#clip0_18_365)">
<path id="Vector" d="M81.2685 72.9797C70.9644 64.8614 59.4114 61.4267 49.4764 60.1209V40.109C49.4764 40.0522 49.4764 40.0238 49.4764 39.967V39.9387V39.9103C49.4764 39.8819 49.4764 39.8819 49.4764 39.8535C49.4764 39.8251 49.4764 39.8251 49.4764 39.7967C49.4764 39.7683 49.4764 39.74 49.448 39.7116C49.448 39.6832 49.448 39.6832 49.4196 39.6548C49.4196 39.6264 49.4196 39.6264 49.4196 39.598C49.3912 39.5413 49.3912 39.4845 49.3629 39.4561C49.3629 39.4277 49.3345 39.4277 49.3345 39.3993L49.3061 39.3709C49.3061 39.3709 49.3061 39.3426 49.2777 39.3426C49.2493 39.2858 49.2209 39.2574 49.1925 39.229C49.1925 39.229 49.1925 39.229 49.1642 39.2006C49.1642 39.1722 49.1358 39.1722 49.1358 39.1439C49.1074 39.1155 49.1074 39.1155 49.079 39.0871C49.0506 39.0587 48.9938 39.0303 48.9655 38.9735C48.9655 38.9735 48.9655 38.9735 48.9371 38.9735L48.9087 38.9452C48.6532 38.7748 47.83 38.2639 46.354 37.8665C48.1707 36.7027 49.4764 34.886 49.5332 32.5584C49.6183 29.6346 48.7951 28.045 47.9436 26.3703C47.1771 24.8658 46.3823 23.3046 46.0133 20.2957C45.843 18.99 44.9631 18.11 43.7425 18.11C40.5633 18.11 34.7158 25.1213 33.8926 29.1237C33.1546 32.6151 34.5171 35.9646 37.1286 37.8097C35.3687 38.2639 34.5171 38.86 34.3752 38.9735C34.3468 39.0019 34.3184 39.0303 34.29 39.0587C34.2616 39.0871 34.2616 39.0871 34.2332 39.1155L34.2048 39.1439L34.1765 39.1722C34.1481 39.229 34.0913 39.2574 34.0629 39.3142L34.0345 39.3426V39.3709L34.0061 39.3993C34.0061 39.4277 33.9778 39.4277 33.9778 39.4277C33.9494 39.4845 33.921 39.5129 33.921 39.5696C33.8926 39.598 33.8926 39.6548 33.8926 39.6832C33.8926 39.7116 33.8642 39.74 33.8642 39.7683C33.8358 39.9103 33.8074 40.0522 33.8358 40.1657V59.6384C31.1392 59.8087 29.067 60.0926 27.8181 60.2913C26.711 60.4616 25.7175 61.0293 24.9795 61.8809L1.19219 89.4434C0.283849 90.4937 -0.141937 92.3104 0.0567633 93.6162L5.67715 135.797C5.73392 136.195 5.93262 136.535 6.24486 136.763C6.50033 136.933 6.78419 137.046 7.06805 137.046C7.15321 137.046 7.23836 137.046 7.32352 137.018L79.6221 123.648C80.275 123.535 80.7575 122.967 80.7859 122.314L82.8297 78.6001C82.8297 78.6001 82.8865 77.9756 82.9148 77.7201C83.1987 75.9034 82.7161 74.1151 81.2685 72.9797ZM36.6176 29.7198C37.2421 26.6825 41.3864 22.1124 43.2031 21.1473C43.6573 24.3549 44.594 26.1716 45.3321 27.676C46.0985 29.2088 46.6662 30.2875 46.6094 32.5016C46.5527 34.375 44.9063 35.7376 43.0328 36.2201V34.0344C43.0328 33.2396 42.4083 32.6151 41.6135 32.6151C40.8187 32.6151 40.1942 33.2396 40.1942 34.0344V36.2201C37.526 35.3969 35.9932 32.6435 36.6176 29.7198ZM36.5893 42.0392C39.8536 42.8908 43.3735 42.8908 46.6378 42.0392V76.017C45.8146 76.2724 44.9914 76.4711 44.1399 76.5847C43.2883 76.6982 42.4367 76.7834 41.5852 76.7834C39.882 76.7834 38.1789 76.5279 36.5609 76.017V42.0392H36.5893ZM78.0041 121.065L8.28864 133.952L6.69903 122.03L78.6286 107.837L78.0041 121.065ZM79.2531 94.4393C79.2247 94.4393 79.2247 94.4393 79.1963 94.4393L5.02427 109.569L3.34951 97.0224C3.80369 97.1644 4.25786 97.2211 4.74042 97.2211C5.08105 97.2211 5.42167 97.1928 5.79069 97.1076L79.3098 81.2967C79.5085 81.24 79.7072 81.2116 79.8776 81.1264L79.2531 94.4393ZM80.1614 77.0956C80.133 77.1808 80.1046 77.266 80.0763 77.3511C79.8492 77.9472 79.3666 78.4014 78.7137 78.5433L4.99589 94.3826C3.80368 94.5813 3.29274 93.8149 3.06566 93.3323C3.06566 93.3039 3.06566 93.3039 3.03727 93.3039C2.92373 93.0201 2.75341 92.4807 3.00888 91.8562C3.09404 91.6859 3.1792 91.5156 3.34951 91.3453L27.0232 63.7259C27.3071 63.3853 27.7045 63.1582 28.1587 63.1014C29.2941 62.9311 31.2243 62.6757 33.7223 62.5053V77.0389C33.7223 77.635 34.0913 78.1743 34.659 78.373C36.8731 79.1962 39.2291 79.5936 41.5852 79.5936C43.8276 79.5936 46.0133 79.2246 48.1139 78.4865L48.4829 78.3446C49.0506 78.1459 49.4196 77.6066 49.4196 77.0105V62.9879C58.8721 64.2653 69.7722 67.5864 79.4518 75.1938C80.0763 75.6763 80.3317 76.3576 80.1614 77.0956Z" fill="#3A405A"/>
<path id="Vector_2" d="M0.0567639 93.6446C-7.66478e-06 93.8149 0.0283781 93.4459 0.0567639 93.6446V93.6446Z" fill="#3A405A"/>
<path id="Vector_3" d="M59.0708 28.6696C59.0708 29.4644 59.6953 30.0889 60.4901 30.0889H68.8355C69.6303 30.0889 70.2548 29.4644 70.2548 28.6696C70.2548 27.8748 69.6303 27.2503 68.8355 27.2503H60.4901C59.6953 27.2503 59.0708 27.8748 59.0708 28.6696Z" fill="#3A405A"/>
<path id="Vector_4" d="M14.3632 30.0889H22.7086C23.5034 30.0889 24.1279 29.4644 24.1279 28.6696C24.1279 27.8748 23.5034 27.2503 22.7086 27.2503H14.3632C13.5684 27.2503 12.9439 27.8748 12.9439 28.6696C12.9439 29.4644 13.5684 30.0889 14.3632 30.0889Z" fill="#3A405A"/>
<path id="Vector_5" d="M42.9761 55.9198V47.5744C42.9761 46.7796 42.3516 46.1551 41.5568 46.1551C40.762 46.1551 40.1375 46.7796 40.1375 47.5744V55.9198C40.1375 56.7146 40.762 57.3391 41.5568 57.3391C42.3232 57.3391 42.9761 56.6862 42.9761 55.9198Z" fill="#3A405A"/>
<path id="Vector_6" d="M41.5284 11.2122C42.3232 11.2122 42.9477 10.5877 42.9477 9.79287V1.44745C42.9477 0.652649 42.3232 0.028162 41.5284 0.028162C40.7336 0.028162 40.1091 0.652649 40.1091 1.44745V9.79287C40.1091 10.5593 40.762 11.2122 41.5284 11.2122Z" fill="#3A405A"/>
<path id="Vector_7" d="M27.1936 41.0174L21.2893 46.9216C20.7216 47.4893 20.7216 48.3693 21.2893 48.937C21.5732 49.2209 21.9422 49.3628 22.2828 49.3628C22.6235 49.3628 23.0209 49.2209 23.2763 48.937L29.1806 43.0328C29.7483 42.465 29.7483 41.5851 29.1806 41.0174C28.6413 40.4497 27.7329 40.4497 27.1936 41.0174Z" fill="#3A405A"/>
<path id="Vector_8" d="M54.8981 16.719C55.2671 16.719 55.6361 16.5771 55.8916 16.2932L61.7958 10.389C62.3635 9.82125 62.3635 8.94129 61.7958 8.37358C61.2281 7.80586 60.3481 7.80586 59.7804 8.37358L53.9046 14.3062C53.3369 14.8739 53.3369 15.7539 53.9046 16.3216C54.16 16.6055 54.5291 16.719 54.8981 16.719Z" fill="#3A405A"/>
<path id="Vector_9" d="M27.2503 16.3218C27.5342 16.6056 27.9032 16.7476 28.2439 16.7476C28.5845 16.7476 28.9819 16.6056 29.2374 16.3218C29.8051 15.7541 29.8051 14.8741 29.2374 14.3064L23.3331 8.40214C22.7654 7.83442 21.8854 7.83442 21.3177 8.40214C20.75 8.96985 20.75 9.84982 21.3177 10.4175L27.2503 16.3218Z" fill="#3A405A"/>
<path id="Vector_10" d="M53.9614 41.0174C53.3937 41.5851 53.3937 42.465 53.9614 43.0328L59.8656 48.937C60.1495 49.2209 60.5185 49.3628 60.8591 49.3628C61.1997 49.3628 61.5971 49.2209 61.8526 48.937C62.4203 48.3693 62.4203 47.4893 61.8526 46.9216L55.9484 41.0174C55.409 40.4497 54.5007 40.4497 53.9614 41.0174Z" fill="#3A405A"/>
</g>
<defs>
<clipPath id="clip0_18_365">
<rect width="83" height="137.047" fill="white" transform="matrix(1 0 0 -1 0 137.046)"/>
</clipPath>
</defs>
</svg>
